<svg width="301" height="39" viewBox="0 0 301 39" fill="none" xmlns="http://www.w3.org/2000/svg">
<path d="M1.17966 11.7047V8.42898H18.3901V11.7047H11.7229V30H7.84688V11.7047H1.17966ZM26.2502 30.316C24.6703 30.316 23.301 29.9684 22.1424 29.2732C20.9838 28.5781 20.085 27.6056 19.446 26.3557C18.8141 25.1058 18.4981 23.6453 18.4981 21.9741C18.4981 20.3029 18.8141 18.8388 19.446 17.5819C20.085 16.325 20.9838 15.349 22.1424 14.6538C23.301 13.9587 24.6703 13.6111 26.2502 13.6111C27.8301 13.6111 29.1993 13.9587 30.3579 14.6538C31.5165 15.349 32.4118 16.325 33.0438 17.5819C33.6828 18.8388 34.0023 20.3029 34.0023 21.9741C34.0023 23.6453 33.6828 25.1058 33.0438 26.3557C32.4118 27.6056 31.5165 28.5781 30.3579 29.2732C29.1993 29.9684 27.8301 30.316 26.2502 30.316ZM26.2712 27.2615C27.1279 27.2615 27.8441 27.0263 28.4199 26.5558C28.9957 26.0783 29.424 25.4393 29.7049 24.6388C29.9928 23.8384 30.1368 22.9466 30.1368 21.9635C30.1368 20.9735 29.9928 20.0782 29.7049 19.2777C29.424 18.4702 28.9957 17.8277 28.4199 17.3502C27.8441 16.8727 27.1279 16.634 26.2712 16.634C25.3935 16.634 24.6633 16.8727 24.0804 17.3502C23.5047 17.8277 23.0728 18.4702 22.7849 19.2777C22.504 20.0782 22.3636 20.9735 22.3636 21.9635C22.3636 22.9466 22.504 23.8384 22.7849 24.6388C23.0728 25.4393 23.5047 26.0783 24.0804 26.5558C24.6633 27.0263 25.3935 27.2615 26.2712 27.2615ZM40.1139 30L35.5427 13.8217H39.4293L42.2731 25.1971H42.4205L45.3276 13.8217H49.172L52.0791 25.1339H52.237L55.0387 13.8217H58.9359L54.3541 30H50.3833L47.3499 19.067H47.1287L44.0952 30H40.1139ZM65.4108 20.5205V30H61.598V13.8217H65.2423V16.5708H65.4319C65.8041 15.665 66.3974 14.9452 67.2119 14.4116C68.0335 13.8779 69.0481 13.6111 70.2559 13.6111C71.3724 13.6111 72.3449 13.8498 73.1735 14.3273C74.0091 14.8048 74.6551 15.4964 75.1115 16.4023C75.5749 17.3081 75.8031 18.407 75.7961 19.699V30H71.9833V20.2888C71.9833 19.2075 71.7024 18.3613 71.1406 17.7504C70.5859 17.1395 69.817 16.8341 68.834 16.8341C68.1669 16.8341 67.5736 16.9816 67.054 17.2765C66.5414 17.5644 66.1376 17.9822 65.8427 18.5299C65.5548 19.0776 65.4108 19.7411 65.4108 20.5205ZM81.4627 36.0668C80.9431 36.0668 80.4621 36.0247 80.0197 35.9405C79.5844 35.8632 79.2368 35.7719 78.977 35.6666L79.8617 32.6964C80.4165 32.8579 80.9115 32.9351 81.3469 32.9281C81.7822 32.9211 82.1649 32.7841 82.4949 32.5173C82.832 32.2575 83.1164 31.8222 83.3481 31.2113L83.6746 30.337L77.8079 13.8217H81.8524L85.581 26.0397H85.7495L89.4887 13.8217H93.5437L87.0661 31.9591C86.7642 32.8157 86.3639 33.5495 85.8654 34.1604C85.3668 34.7783 84.7559 35.2488 84.0327 35.5718C83.3165 35.9018 82.4598 36.0668 81.4627 36.0668ZM103.708 30V8.42898H111.797C113.454 8.42898 114.844 8.73794 115.968 9.35586C117.098 9.97378 117.952 10.8234 118.527 11.9048C119.11 12.9791 119.402 14.2009 119.402 15.5702C119.402 16.9535 119.11 18.1823 118.527 19.2566C117.945 20.331 117.084 21.1771 115.947 21.795C114.809 22.4059 113.408 22.7114 111.744 22.7114H106.383V19.4989H111.218C112.187 19.4989 112.98 19.3304 113.598 18.9933C114.216 18.6563 114.672 18.1928 114.967 17.603C115.269 17.0132 115.42 16.3355 115.42 15.5702C115.42 14.8048 115.269 14.1307 114.967 13.5479C114.672 12.9651 114.212 12.5122 113.588 12.1892C112.97 11.8591 112.173 11.6941 111.197 11.6941H107.615V30H103.708ZM122.627 30V13.8217H126.324V16.5181H126.493C126.788 15.5842 127.293 14.8645 128.009 14.3589C128.733 13.8463 129.558 13.59 130.485 13.59C130.695 13.59 130.931 13.6005 131.19 13.6216C131.457 13.6357 131.678 13.6602 131.854 13.6953V17.2027C131.692 17.1466 131.436 17.0974 131.085 17.0553C130.741 17.0061 130.407 16.9816 130.084 16.9816C129.389 16.9816 128.764 17.1325 128.21 17.4345C127.662 17.7294 127.23 18.1402 126.914 18.6668C126.598 19.1934 126.44 19.8008 126.44 20.489V30H122.627ZM140.778 30.316C139.198 30.316 137.829 29.9684 136.67 29.2732C135.511 28.5781 134.613 27.6056 133.974 26.3557C133.342 25.1058 133.026 23.6453 133.026 21.9741C133.026 20.3029 133.342 18.8388 133.974 17.5819C134.613 16.325 135.511 15.349 136.67 14.6538C137.829 13.9587 139.198 13.6111 140.778 13.6111C142.358 13.6111 143.727 13.9587 144.886 14.6538C146.044 15.349 146.939 16.325 147.571 17.5819C148.21 18.8388 148.53 20.3029 148.53 21.9741C148.53 23.6453 148.21 25.1058 147.571 26.3557C146.939 27.6056 146.044 28.5781 144.886 29.2732C143.727 29.9684 142.358 30.316 140.778 30.316ZM140.799 27.2615C141.655 27.2615 142.372 27.0263 142.947 26.5558C143.523 26.0783 143.952 25.4393 144.232 24.6388C144.52 23.8384 144.664 22.9466 144.664 21.9635C144.664 20.9735 144.52 20.0782 144.232 19.2777C143.952 18.4702 143.523 17.8277 142.947 17.3502C142.372 16.8727 141.655 16.634 140.799 16.634C139.921 16.634 139.191 16.8727 138.608 17.3502C138.032 17.8277 137.6 18.4702 137.312 19.2777C137.032 20.0782 136.891 20.9735 136.891 21.9635C136.891 22.9466 137.032 23.8384 137.312 24.6388C137.6 25.4393 138.032 26.0783 138.608 26.5558C139.191 27.0263 139.921 27.2615 140.799 27.2615ZM157.77 30.2844C156.499 30.2844 155.361 29.9579 154.357 29.3048C153.353 28.6518 152.559 27.7039 151.977 26.461C151.394 25.2181 151.102 23.7085 151.102 21.9319C151.102 20.1343 151.397 18.6176 151.987 17.3818C152.584 16.1389 153.388 15.2015 154.399 14.5696C155.41 13.9306 156.537 13.6111 157.78 13.6111C158.728 13.6111 159.508 13.7726 160.118 14.0956C160.729 14.4116 161.214 14.7943 161.572 15.2437C161.93 15.686 162.207 16.1038 162.404 16.497H162.562V8.42898H166.385V30H162.636V27.4511H162.404C162.207 27.8443 161.923 28.2621 161.551 28.7045C161.179 29.1398 160.687 29.512 160.076 29.8209C159.465 30.1299 158.697 30.2844 157.77 30.2844ZM158.833 27.1562C159.641 27.1562 160.329 26.9385 160.898 26.5031C161.467 26.0608 161.898 25.4464 162.193 24.6599C162.488 23.8735 162.636 22.9571 162.636 21.9109C162.636 20.8646 162.488 19.9553 162.193 19.1829C161.906 18.4105 161.477 17.8101 160.908 17.3818C160.347 16.9535 159.655 16.7393 158.833 16.7393C157.984 16.7393 157.275 16.9605 156.706 17.4029C156.137 17.8452 155.709 18.4561 155.421 19.2356C155.133 20.015 154.989 20.9067 154.989 21.9109C154.989 22.922 155.133 23.8243 155.421 24.6178C155.716 25.4042 156.148 26.0257 156.716 26.4821C157.292 26.9315 157.998 27.1562 158.833 27.1562ZM180.76 23.1959V13.8217H184.573V30H180.876V27.1246H180.707C180.342 28.0304 179.742 28.7712 178.906 29.347C178.078 29.9228 177.056 30.2107 175.841 30.2107C174.781 30.2107 173.843 29.9754 173.029 29.505C172.221 29.0275 171.589 28.3358 171.133 27.43C170.677 26.5172 170.448 25.4148 170.448 24.1227V13.8217H174.261V23.5329C174.261 24.5581 174.542 25.3726 175.104 25.9765C175.666 26.5804 176.403 26.8823 177.316 26.8823C177.878 26.8823 178.422 26.7454 178.948 26.4715C179.475 26.1977 179.907 25.7904 180.244 25.2497C180.588 24.702 180.76 24.0174 180.76 23.1959ZM195.551 30.316C193.936 30.316 192.549 29.9614 191.39 29.2522C190.239 28.543 189.35 27.5634 188.725 26.3135C188.107 25.0566 187.798 23.6101 187.798 21.9741C187.798 20.331 188.114 18.881 188.746 17.624C189.378 16.3601 190.27 15.3771 191.422 14.6749C192.58 13.9657 193.95 13.6111 195.529 13.6111C196.843 13.6111 198.005 13.8533 199.016 14.3378C200.034 14.8153 200.845 15.4929 201.449 16.3707C202.053 17.2414 202.397 18.2595 202.481 19.4251H198.837C198.689 18.6457 198.338 17.9962 197.783 17.4766C197.236 16.95 196.502 16.6866 195.582 16.6866C194.803 16.6866 194.118 16.8973 193.528 17.3186C192.938 17.7329 192.478 18.3297 192.148 19.1092C191.825 19.8886 191.664 20.8225 191.664 21.9109C191.664 23.0133 191.825 23.9612 192.148 24.7547C192.471 25.5411 192.924 26.1485 193.507 26.5769C194.097 26.9982 194.789 27.2088 195.582 27.2088C196.144 27.2088 196.646 27.1035 197.088 26.8928C197.538 26.6752 197.913 26.3627 198.215 25.9554C198.517 25.5482 198.724 25.0531 198.837 24.4703H202.481C202.39 25.6149 202.053 26.6295 201.47 27.5143C200.887 28.392 200.094 29.0801 199.09 29.5787C198.085 30.0702 196.906 30.316 195.551 30.316ZM213.691 13.8217V16.7709H204.39V13.8217H213.691ZM206.686 9.94569H210.499V25.1339C210.499 25.6465 210.576 26.0397 210.731 26.3135C210.892 26.5804 211.103 26.7629 211.363 26.8612C211.623 26.9596 211.911 27.0087 212.226 27.0087C212.465 27.0087 212.683 26.9912 212.88 26.956C213.083 26.9209 213.238 26.8893 213.343 26.8612L213.985 29.842C213.782 29.9122 213.49 29.9895 213.111 30.0737C212.739 30.158 212.283 30.2071 211.742 30.2212C210.787 30.2493 209.927 30.1053 209.161 29.7893C208.396 29.4663 207.789 28.9678 207.339 28.2937C206.897 27.6196 206.679 26.777 206.686 25.7658V9.94569ZM223.457 11.7047V8.42898H240.667V11.7047H234V30H230.124V11.7047H223.457ZM248.633 30.316C247.011 30.316 245.61 29.9789 244.43 29.3048C243.258 28.6237 242.355 27.6617 241.723 26.4189C241.091 25.169 240.775 23.6979 240.775 22.0057C240.775 20.3415 241.091 18.881 241.723 17.624C242.362 16.3601 243.254 15.3771 244.399 14.6749C245.543 13.9657 246.888 13.6111 248.433 13.6111C249.43 13.6111 250.371 13.7726 251.255 14.0956C252.147 14.4116 252.934 14.9031 253.615 15.5702C254.303 16.2372 254.844 17.0869 255.237 18.1191C255.63 19.1443 255.827 20.3661 255.827 21.7845V22.9536H242.566V20.3836H252.172C252.165 19.6534 252.007 19.0038 251.698 18.4351C251.389 17.8593 250.957 17.4064 250.402 17.0763C249.855 16.7463 249.216 16.5813 248.485 16.5813C247.706 16.5813 247.021 16.7709 246.432 17.1501C245.842 17.5222 245.382 18.0138 245.052 18.6247C244.729 19.2285 244.564 19.8921 244.557 20.6153V22.8588C244.557 23.7997 244.729 24.6072 245.073 25.2813C245.417 25.9484 245.898 26.461 246.516 26.8191C247.134 27.1702 247.857 27.3458 248.686 27.3458C249.24 27.3458 249.742 27.2685 250.192 27.114C250.641 26.9525 251.031 26.7173 251.361 26.4083C251.691 26.0994 251.94 25.7167 252.109 25.2603L255.669 25.6605C255.444 26.6014 255.016 27.423 254.384 28.1252C253.759 28.8203 252.958 29.361 251.982 29.7472C251.006 30.1264 249.89 30.316 248.633 30.316ZM263.708 30.3265C262.683 30.3265 261.759 30.1439 260.938 29.7788C260.123 29.4067 259.477 28.859 259 28.1357C258.529 27.4125 258.294 26.5207 258.294 25.4604C258.294 24.5476 258.463 23.7927 258.8 23.1959C259.137 22.599 259.597 22.1215 260.179 21.7634C260.762 21.4053 261.419 21.135 262.149 20.9524C262.886 20.7628 263.648 20.6259 264.435 20.5416C265.383 20.4433 266.151 20.3555 266.741 20.2783C267.331 20.194 267.759 20.0676 268.026 19.8991C268.3 19.7236 268.437 19.4532 268.437 19.0881V19.0249C268.437 18.2314 268.202 17.617 267.731 17.1817C267.261 16.7463 266.583 16.5286 265.698 16.5286C264.765 16.5286 264.024 16.7323 263.476 17.1395C262.935 17.5468 262.57 18.0278 262.381 18.5825L258.821 18.077C259.102 17.0939 259.565 16.2724 260.211 15.6123C260.857 14.9452 261.647 14.4467 262.581 14.1167C263.515 13.7796 264.547 13.6111 265.677 13.6111C266.457 13.6111 267.233 13.7024 268.005 13.8849C268.778 14.0675 269.483 14.3694 270.122 14.7907C270.761 15.205 271.274 15.7703 271.66 16.4865C272.053 17.2027 272.25 18.098 272.25 19.1724V30H268.584V27.7776H268.458C268.226 28.227 267.9 28.6483 267.479 29.0415C267.064 29.4277 266.541 29.7402 265.909 29.9789C265.284 30.2107 264.55 30.3265 263.708 30.3265ZM264.698 27.5248C265.463 27.5248 266.127 27.3738 266.689 27.0719C267.25 26.7629 267.682 26.3557 267.984 25.8501C268.293 25.3445 268.448 24.7933 268.448 24.1965V22.29C268.328 22.3884 268.125 22.4796 267.837 22.5639C267.556 22.6482 267.24 22.7219 266.889 22.7851C266.538 22.8483 266.19 22.9045 265.846 22.9536C265.502 23.0028 265.203 23.0449 264.951 23.08C264.382 23.1572 263.873 23.2836 263.423 23.4592C262.974 23.6347 262.619 23.8805 262.36 24.1965C262.1 24.5054 261.97 24.9057 261.97 25.3972C261.97 26.0994 262.226 26.6295 262.739 26.9876C263.251 27.3458 263.904 27.5248 264.698 27.5248ZM276.084 30V13.8217H279.728V16.5708H279.918C280.255 15.6439 280.813 14.9207 281.592 14.401C282.372 13.8744 283.302 13.6111 284.384 13.6111C285.479 13.6111 286.402 13.8779 287.154 14.4116C287.912 14.9382 288.446 15.6579 288.755 16.5708H288.923C289.281 15.672 289.885 14.9558 290.735 14.4221C291.591 13.8814 292.606 13.6111 293.779 13.6111C295.267 13.6111 296.482 14.0815 297.423 15.0225C298.364 15.9634 298.834 17.3362 298.834 19.1408V30H295.011V19.7306C295.011 18.7265 294.744 17.9927 294.211 17.5293C293.677 17.0588 293.024 16.8236 292.251 16.8236C291.332 16.8236 290.612 17.1115 290.092 17.6872C289.58 18.256 289.323 18.9968 289.323 19.9097V30H285.584V19.5726C285.584 18.737 285.331 18.0699 284.826 17.5714C284.327 17.0728 283.674 16.8236 282.867 16.8236C282.319 16.8236 281.821 16.964 281.371 17.2449C280.922 17.5187 280.564 17.9084 280.297 18.414C280.03 18.9126 279.897 19.4954 279.897 20.1624V30H276.084Z" fill="black" style="fill:black;fill-opacity:1;"/>
</svg>
