<svg width="124" height="49" viewBox="0 0 124 49" fill="none" xmlns="http://www.w3.org/2000/svg">
<rect x="0.46344" y="0.46344" width="123.073" height="47.4681" rx="23.6614" stroke="#101010" style="stroke:#101010;stroke:color(display-p3 0.0625 0.0625 0.0625);stroke-opacity:1;" stroke-width="0.92688"/>
<path d="M30.6345 34.14L9.29667 12.8022L12.8022 9.29672L34.14 30.6321L34.14 11.8279L39.0982 11.8279L39.0982 39.0983L11.8279 39.0983L11.8279 34.14L30.6345 34.14Z" fill="white" style="fill:white;fill-opacity:1;"/>
<rect x="0.46344" y="0.46344" width="106.661" height="47.4681" rx="23.6614" stroke="#101010" style="stroke:#101010;stroke:color(display-p3 0.0625 0.0625 0.0625);stroke-opacity:1;" stroke-width="0.92688"/>
<path d="M30.6345 34.14L9.29667 12.8022L12.8022 9.29672L34.14 30.6321L34.14 11.8279L39.0982 11.8279L39.0982 39.0983L11.8279 39.0983L11.8279 34.14L30.6345 34.14Z" fill="white" style="fill:white;fill-opacity:1;"/>
<rect x="0.46344" y="0.46344" width="92.0731" height="46.4864" rx="23.172" stroke="#101010" style="stroke:#101010;stroke:color(display-p3 0.0625 0.0625 0.0625);stroke-opacity:1;" stroke-width="0.92688"/>
<path d="M52.9256 14.0918L31.6251 34.7267L35.1244 38.1167L56.425 17.4842L56.425 35.6689L61.3746 35.6689L61.3746 9.29685L34.1518 9.29685L34.1518 14.0918L52.9256 14.0918Z" fill="#101010" style="fill:#101010;fill:color(display-p3 0.0625 0.0625 0.0625);fill-opacity:1;"/>
</svg>
