<svg width="28" height="28" viewBox="0 0 28 28" fill="none" xmlns="http://www.w3.org/2000/svg">
<g clip-path="url(#clip0_1_422)">
<path d="M5.8333 19.8332C5.8333 20.4521 6.07914 21.0456 6.51672 21.4832C6.9543 21.9207 7.5478 22.1666 8.16664 22.1666C8.78547 22.1666 9.37897 21.9207 9.81655 21.4832C10.2541 21.0456 10.5 20.4521 10.5 19.8332C10.5 19.2144 10.2541 18.6209 9.81655 18.1833C9.37897 17.7457 8.78547 17.4999 8.16664 17.4999C7.5478 17.4999 6.9543 17.7457 6.51672 18.1833C6.07914 18.6209 5.8333 19.2144 5.8333 19.8332Z" stroke="#231E30" style="stroke:#231E30;stroke:color(display-p3 0.1373 0.1176 0.1882);stroke-opacity:1;" stroke-width="1.85376" stroke-linecap="round" stroke-linejoin="round"/>
<path d="M17.5 19.8332C17.5 20.4521 17.7458 21.0456 18.1834 21.4832C18.621 21.9207 19.2145 22.1666 19.8333 22.1666C20.4521 22.1666 21.0456 21.9207 21.4832 21.4832C21.9208 21.0456 22.1666 20.4521 22.1666 19.8332C22.1666 19.2144 21.9208 18.6209 21.4832 18.1833C21.0456 17.7457 20.4521 17.4999 19.8333 17.4999C19.2145 17.4999 18.621 17.7457 18.1834 18.1833C17.7458 18.6209 17.5 19.2144 17.5 19.8332Z" stroke="#231E30" style="stroke:#231E30;stroke:color(display-p3 0.1373 0.1176 0.1882);stroke-opacity:1;" stroke-width="1.85376" stroke-linecap="round" stroke-linejoin="round"/>
<path d="M5.8333 19.8334H3.49997V12.8334M3.49997 12.8334L5.8333 7.00006H16.3333L21 12.8334M3.49997 12.8334H21M21 12.8334H22.1666C22.7855 12.8334 23.379 13.0792 23.8165 13.5168C24.2541 13.9544 24.5 14.5479 24.5 15.1667V19.8334H22.1666M17.5 19.8334H10.5M14 12.8334V7.00006" stroke="#231E30" style="stroke:#231E30;stroke:color(display-p3 0.1373 0.1176 0.1882);stroke-opacity:1;" stroke-width="1.85376" stroke-linecap="round" stroke-linejoin="round"/>
</g>
<defs>
<clipPath id="clip0_1_422">
<rect width="27.8064" height="27.8064" fill="white" style="fill:white;fill-opacity:1;" transform="scale(1.00696)"/>
</clipPath>
</defs>
</svg>
