<svg width="463" height="161" viewBox="0 0 463 161" fill="none" xmlns="http://www.w3.org/2000/svg">
<path d="M462.585 18.5591C462.585 8.30917 454.276 0 444.026 0H18.5591C8.30917 0 0 8.30918 0 18.5591V48.4472C0 58.6971 8.30917 67.0063 18.5591 67.0063H97.4352C107.685 67.0063 115.994 75.3155 115.994 85.5654V142.441C115.994 152.691 124.303 161 134.553 161H372.573C382.823 161 391.132 152.691 391.132 142.441V111.354C391.132 101.105 399.442 92.7953 409.692 92.7953H444.026C454.276 92.7953 462.585 84.4862 462.585 74.2363V18.5591Z" fill="#E4FFD4" style="fill:#E4FFD4;fill:color(display-p3 0.8951 1.0000 0.8298);fill-opacity:1;"/>
</svg>
