<svg width="28" height="28" viewBox="0 0 28 28" fill="none" xmlns="http://www.w3.org/2000/svg">
<g clip-path="url(#clip0_1_283)">
<path d="M11.0833 3.50003H16.9167C17.3808 3.50003 17.8259 3.68441 18.1541 4.01259C18.4823 4.34078 18.6667 4.7859 18.6667 5.25003C18.6667 6.333 18.2365 7.37161 17.4707 8.13738C16.7049 8.90316 15.6663 9.33336 14.5833 9.33336H13.4167C12.3337 9.33336 11.2951 8.90316 10.5293 8.13738C9.76354 7.37161 9.33333 6.333 9.33333 5.25003C9.33333 4.7859 9.51771 4.34078 9.8459 4.01259C10.1741 3.68441 10.6192 3.50003 11.0833 3.50003Z" stroke="#231E30" style="stroke:#231E30;stroke:color(display-p3 0.1373 0.1176 0.1882);stroke-opacity:1;" stroke-width="1.85376" stroke-linecap="round" stroke-linejoin="round"/>
<path d="M4.66667 19.8333V18.6667C4.66667 16.1913 5.65 13.8173 7.40034 12.067C9.15067 10.3167 11.5246 9.33333 14 9.33333C16.4754 9.33333 18.8493 10.3167 20.5997 12.067C22.35 13.8173 23.3333 16.1913 23.3333 18.6667V19.8333C23.3333 21.071 22.8417 22.258 21.9665 23.1332C21.0913 24.0083 19.9043 24.5 18.6667 24.5H9.33333C8.09566 24.5 6.90867 24.0083 6.0335 23.1332C5.15833 22.258 4.66667 21.071 4.66667 19.8333Z" stroke="#231E30" style="stroke:#231E30;stroke:color(display-p3 0.1373 0.1176 0.1882);stroke-opacity:1;" stroke-width="1.85376" stroke-linecap="round" stroke-linejoin="round"/>
</g>
<defs>
<clipPath id="clip0_1_283">
<rect width="27.8064" height="27.8064" fill="white" style="fill:white;fill-opacity:1;" transform="scale(1.00696)"/>
</clipPath>
</defs>
</svg>
