<svg width="28" height="28" viewBox="0 0 28 28" fill="none" xmlns="http://www.w3.org/2000/svg">
<g clip-path="url(#clip0_1_415)">
<path d="M8.16667 12.8332V22.1665C8.16667 22.476 8.04375 22.7727 7.82496 22.9915C7.60616 23.2103 7.30942 23.3332 7 23.3332H4.66667C4.35725 23.3332 4.0605 23.2103 3.84171 22.9915C3.62292 22.7727 3.5 22.476 3.5 22.1665V13.9999C3.5 13.6905 3.62292 13.3937 3.84171 13.1749C4.0605 12.9561 4.35725 12.8332 4.66667 12.8332H8.16667ZM8.16667 12.8332C9.40434 12.8332 10.5913 12.3415 11.4665 11.4664C12.3417 10.5912 12.8333 9.40422 12.8333 8.16654V6.99988C12.8333 6.38104 13.0792 5.78755 13.5167 5.34996C13.9543 4.91238 14.5478 4.66654 15.1667 4.66654C15.7855 4.66654 16.379 4.91238 16.8166 5.34996C17.2542 5.78755 17.5 6.38104 17.5 6.99988V12.8332H21C21.6188 12.8332 22.2123 13.079 22.6499 13.5166C23.0875 13.9542 23.3333 14.5477 23.3333 15.1665L22.1667 20.9999C21.9989 21.7156 21.6806 22.3302 21.2598 22.751C20.8389 23.1718 20.3383 23.3762 19.8333 23.3332H11.6667C10.7384 23.3332 9.84817 22.9645 9.19179 22.3081C8.53541 21.6517 8.16667 20.7615 8.16667 19.8332" stroke="#231E30" style="stroke:#231E30;stroke:color(display-p3 0.1373 0.1176 0.1882);stroke-opacity:1;" stroke-width="1.85376" stroke-linecap="round" stroke-linejoin="round"/>
</g>
<defs>
<clipPath id="clip0_1_415">
<rect width="27.8064" height="27.8064" fill="white" style="fill:white;fill-opacity:1;" transform="scale(1.00696)"/>
</clipPath>
</defs>
</svg>
