<svg width="28" height="28" viewBox="0 0 28 28" fill="none" xmlns="http://www.w3.org/2000/svg">
<g clip-path="url(#clip0_1_429)">
<path d="M3.49997 24.5H24.5" stroke="#231E30" style="stroke:#231E30;stroke:color(display-p3 0.1373 0.1176 0.1882);stroke-opacity:1;" stroke-width="1.85376" stroke-linecap="round" stroke-linejoin="round"/>
<path d="M3.49997 8.16645V9.33312C3.49997 10.2614 3.86872 11.1516 4.5251 11.808C5.18147 12.4644 6.07171 12.8331 6.99997 12.8331C7.92823 12.8331 8.81846 12.4644 9.47484 11.808C10.1312 11.1516 10.5 10.2614 10.5 9.33312M3.49997 8.16645H24.5M3.49997 8.16645L5.8333 3.49978H22.1666L24.5 8.16645M10.5 9.33312V8.16645M10.5 9.33312C10.5 10.2614 10.8687 11.1516 11.5251 11.808C12.1815 12.4644 13.0717 12.8331 14 12.8331C14.9282 12.8331 15.8185 12.4644 16.4748 11.808C17.1312 11.1516 17.5 10.2614 17.5 9.33312M17.5 9.33312V8.16645M17.5 9.33312C17.5 10.2614 17.8687 11.1516 18.5251 11.808C19.1815 12.4644 20.0717 12.8331 21 12.8331C21.9282 12.8331 22.8185 12.4644 23.4748 11.808C24.1312 11.1516 24.5 10.2614 24.5 9.33312V8.16645" stroke="#231E30" style="stroke:#231E30;stroke:color(display-p3 0.1373 0.1176 0.1882);stroke-opacity:1;" stroke-width="1.85376" stroke-linecap="round" stroke-linejoin="round"/>
<path d="M5.8333 24.5V12.6583" stroke="#231E30" style="stroke:#231E30;stroke:color(display-p3 0.1373 0.1176 0.1882);stroke-opacity:1;" stroke-width="1.85376" stroke-linecap="round" stroke-linejoin="round"/>
<path d="M22.1666 24.5V12.6583" stroke="#231E30" style="stroke:#231E30;stroke:color(display-p3 0.1373 0.1176 0.1882);stroke-opacity:1;" stroke-width="1.85376" stroke-linecap="round" stroke-linejoin="round"/>
<path d="M10.5 24.4999V19.8332C10.5 19.2144 10.7458 18.6209 11.1834 18.1833C11.621 17.7457 12.2145 17.4999 12.8333 17.4999H15.1666C15.7855 17.4999 16.379 17.7457 16.8165 18.1833C17.2541 18.6209 17.5 19.2144 17.5 19.8332V24.4999" stroke="#231E30" style="stroke:#231E30;stroke:color(display-p3 0.1373 0.1176 0.1882);stroke-opacity:1;" stroke-width="1.85376" stroke-linecap="round" stroke-linejoin="round"/>
</g>
<defs>
<clipPath id="clip0_1_429">
<rect width="27.8064" height="27.8064" fill="white" style="fill:white;fill-opacity:1;" transform="scale(1.00696)"/>
</clipPath>
</defs>
</svg>
