<svg width="28" height="28" viewBox="0 0 28 28" fill="none" xmlns="http://www.w3.org/2000/svg">
<g clip-path="url(#clip0_1_278)">
<path d="M14 21.5833L10.5 19.8333L3.5 23.3333V8.16667L10.5 4.66667L17.5 8.16667L24.5 4.66667V13.4167" stroke="#231E30" style="stroke:#231E30;stroke:color(display-p3 0.1373 0.1176 0.1882);stroke-opacity:1;" stroke-width="1.85376" stroke-linecap="round" stroke-linejoin="round"/>
<path d="M10.5 4.66667V19.8333" stroke="#231E30" style="stroke:#231E30;stroke:color(display-p3 0.1373 0.1176 0.1882);stroke-opacity:1;" stroke-width="1.85376" stroke-linecap="round" stroke-linejoin="round"/>
<path d="M17.5 8.1667V14.5834" stroke="#231E30" style="stroke:#231E30;stroke:color(display-p3 0.1373 0.1176 0.1882);stroke-opacity:1;" stroke-width="1.85376" stroke-linecap="round" stroke-linejoin="round"/>
<path d="M24.6412 23.4745C25.1308 22.9851 25.4642 22.3615 25.5993 21.6825C25.7345 21.0035 25.6652 20.2997 25.4003 19.6601C25.1355 19.0205 24.6869 18.4739 24.1113 18.0892C23.5357 17.7046 22.8589 17.4993 22.1667 17.4993C21.4744 17.4993 20.7977 17.7046 20.2221 18.0892C19.6465 18.4739 19.1979 19.0205 18.933 19.6601C18.6681 20.2997 18.5989 21.0035 18.734 21.6825C18.8691 22.3615 19.2026 22.9851 19.6922 23.4745C20.1798 23.9634 21.0047 24.6937 22.1667 25.6667C23.3928 24.6284 24.2188 23.898 24.6412 23.4745Z" stroke="#231E30" style="stroke:#231E30;stroke:color(display-p3 0.1373 0.1176 0.1882);stroke-opacity:1;" stroke-width="1.85376" stroke-linecap="round" stroke-linejoin="round"/>
<path d="M22.1667 20.9999V21.0116" stroke="#231E30" style="stroke:#231E30;stroke:color(display-p3 0.1373 0.1176 0.1882);stroke-opacity:1;" stroke-width="1.85376" stroke-linecap="round" stroke-linejoin="round"/>
</g>
<defs>
<clipPath id="clip0_1_278">
<rect width="27.8064" height="27.8064" fill="white" style="fill:white;fill-opacity:1;" transform="scale(1.00696)"/>
</clipPath>
</defs>
</svg>
