<svg width="40" height="40" viewBox="0 0 40 40" fill="none" xmlns="http://www.w3.org/2000/svg">
<path d="M20 23.5625C21.9675 23.5625 23.5625 21.9676 23.5625 20C23.5625 18.0325 21.9675 16.4375 20 16.4375C18.0325 16.4375 16.4375 18.0325 16.4375 20C16.4375 21.9676 18.0325 23.5625 20 23.5625Z" fill="#61DAFB" style="fill:#61DAFB;fill:color(display-p3 0.3804 0.8549 0.9843);fill-opacity:1;"/>
<path d="M33.5312 14.125C32.8437 13.875 32.125 13.625 31.375 13.4063C31.5625 12.6563 31.7187 11.9063 31.8437 11.1875C32.5 7.06253 31.7812 4.15628 29.7812 3.03128C29.1875 2.68753 28.5312 2.53128 27.7812 2.53128C25.5937 2.53128 22.8125 4.15628 20 6.87503C17.1875 4.15628 14.4062 2.53128 12.2187 2.53128C11.4687 2.53128 10.8125 2.68753 10.2187 3.03128C8.21874 4.18753 7.49999 7.09378 8.15624 11.1875C8.28124 11.9063 8.43749 12.6563 8.62499 13.4063C7.87499 13.625 7.15624 13.8438 6.46874 14.125C2.56249 15.625 0.43749 17.6875 0.43749 20C0.43749 22.3125 2.59374 24.375 6.46874 25.875C7.15624 26.125 7.87499 26.375 8.62499 26.5938C8.43749 27.3438 8.28124 28.0938 8.15624 28.8125C7.49999 32.9375 8.21874 35.8438 10.2187 36.9688C10.8125 37.3125 11.4687 37.4688 12.2187 37.4688C14.4375 37.4688 17.2187 35.8438 20 33.125C22.8125 35.8438 25.5937 37.4688 27.7812 37.4688C28.5312 37.4688 29.1875 37.3125 29.7812 36.9688C31.7812 35.8125 32.5 32.9063 31.8437 28.8125C31.7187 28.0938 31.5625 27.3438 31.375 26.5938C32.125 26.375 32.8437 26.1563 33.5312 25.875C37.4375 24.375 39.5625 22.3125 39.5625 20C39.5625 17.6875 37.4375 15.625 33.5312 14.125ZM28.9062 4.59378C30.1875 5.34378 30.625 7.65628 30.0937 10.9375C30 11.5938 29.8437 12.2813 29.6562 13C28.0312 12.625 26.3125 12.375 24.5 12.2188C23.4375 10.7188 22.3437 9.37503 21.25 8.15628C23.5625 5.87503 25.9062 4.31253 27.8125 4.31253C28.2187 4.31253 28.5937 4.40628 28.9062 4.59378ZM25.4062 23.125C24.8437 24.125 24.1875 25.125 23.5 26.125C22.3437 26.2188 21.1875 26.25 20 26.25C18.7812 26.25 17.625 26.2188 16.5 26.125C15.8125 25.125 15.1875 24.125 14.625 23.125C14.0312 22.0938 13.4687 21.0313 12.9687 20C13.4687 18.9688 14.0312 17.9063 14.625 16.875C15.1875 15.875 15.8437 14.875 16.5312 13.875C17.6875 13.7813 18.8437 13.75 20.0312 13.75C21.25 13.75 22.4062 13.7813 23.5312 13.875C24.2187 14.875 24.8437 15.875 25.4062 16.875C26 17.9063 26.5625 18.9688 27.0625 20C26.5312 21.0313 26 22.0625 25.4062 23.125ZM28 22.0938C28.4687 23.1875 28.8437 24.25 29.1875 25.3125C28.125 25.5625 27 25.75 25.8125 25.9063C26.1875 25.3125 26.5937 24.6875 26.9375 24.0313C27.3125 23.375 27.6562 22.7188 28 22.0938ZM20 30.5625C19.25 29.75 18.5312 28.875 17.8437 27.9688C18.5625 28 19.2812 28.0313 20 28.0313C20.7187 28.0313 21.4375 28 22.1562 27.9688C21.4687 28.875 20.75 29.75 20 30.5625ZM14.1875 25.875C13 25.7188 11.875 25.5313 10.8125 25.2813C11.1562 24.25 11.5312 23.1563 12 22.0625C12.3437 22.6875 12.6875 23.3438 13.0625 23.9688C13.4375 24.6563 13.8125 25.25 14.1875 25.875ZM12 17.9063C11.5312 16.8125 11.1562 15.75 10.8125 14.6875C11.875 14.4375 13 14.25 14.1875 14.0938C13.8125 14.6875 13.4062 15.3125 13.0625 15.9688C12.6875 16.625 12.3437 17.2813 12 17.9063ZM20 9.43753C20.75 10.25 21.4687 11.125 22.1562 12.0313C21.4375 12 20.7187 11.9688 20 11.9688C19.2812 11.9688 18.5625 12 17.8437 12.0313C18.5312 11.125 19.25 10.25 20 9.43753ZM26.9375 16L25.8125 14.125C27 14.2813 28.125 14.4688 29.1875 14.7188C28.8437 15.75 28.4687 16.8438 28 17.9375C27.6562 17.2813 27.3125 16.625 26.9375 16ZM9.90624 10.9375C9.37499 7.65628 9.81249 5.34378 11.0937 4.59378C11.4062 4.40628 11.7812 4.31253 12.1875 4.31253C14.0625 4.31253 16.4062 5.84378 18.75 8.15628C17.6562 9.34378 16.5625 10.7188 15.5 12.2188C13.6875 12.375 11.9687 12.6563 10.3437 13C10.1562 12.2813 10.0312 11.5938 9.90624 10.9375ZM2.18749 20C2.18749 18.5313 3.96874 16.9688 7.09374 15.8125C7.71874 15.5625 8.40624 15.3438 9.09374 15.1563C9.59374 16.7188 10.2187 18.375 10.9687 20.0313C10.2187 21.6875 9.56249 23.3125 9.09374 24.875C4.78124 23.625 2.18749 21.75 2.18749 20ZM11.0937 35.4063C9.81249 34.6563 9.37499 32.3438 9.90624 29.0625C9.99999 28.4063 10.1562 27.7188 10.3437 27C11.9687 27.375 13.6875 27.625 15.5 27.7813C16.5625 29.2813 17.6562 30.625 18.75 31.8438C16.4375 34.125 14.0937 35.6875 12.1875 35.6875C11.7812 35.6875 11.4062 35.5938 11.0937 35.4063ZM30.0937 29.0625C30.625 32.3438 30.1875 34.6563 28.9062 35.4063C28.5937 35.5938 28.2187 35.6875 27.8125 35.6875C25.9375 35.6875 23.5937 34.1563 21.25 31.8438C22.3437 30.6563 23.4375 29.2813 24.5 27.7813C26.3125 27.625 28.0312 27.3438 29.6562 27C29.8437 27.7188 29.9687 28.4063 30.0937 29.0625ZM32.9062 24.1875C32.2812 24.4375 31.5937 24.6563 30.9062 24.8438C30.4062 23.2813 29.7812 21.625 29.0312 19.9688C29.7812 18.3125 30.4375 16.6875 30.9062 15.125C35.2187 16.375 37.8125 18.25 37.8125 20C37.8125 21.4688 36 23.0313 32.9062 24.1875Z" fill="#61DAFB" style="fill:#61DAFB;fill:color(display-p3 0.3804 0.8549 0.9843);fill-opacity:1;"/>
</svg>
