<svg width="32" height="32" viewBox="0 0 32 32" fill="none" xmlns="http://www.w3.org/2000/svg">
<g clip-path="url(#clip0_1_265)">
<path d="M2.66667 23.9999C2.66667 25.0608 3.08809 26.0782 3.83824 26.8284C4.58838 27.5785 5.6058 27.9999 6.66666 27.9999C7.72753 27.9999 8.74494 27.5785 9.49509 26.8284C10.2452 26.0782 10.6667 25.0608 10.6667 23.9999C10.6667 22.9391 10.2452 21.9217 9.49509 21.1715C8.74494 20.4214 7.72753 19.9999 6.66666 19.9999C5.6058 19.9999 4.58838 20.4214 3.83824 21.1715C3.08809 21.9217 2.66667 22.9391 2.66667 23.9999Z" stroke="#5C9B35" style="stroke:#5C9B35;stroke:color(display-p3 0.3608 0.6078 0.2078);stroke-opacity:1;" stroke-width="2.07549" stroke-linecap="round" stroke-linejoin="round"/>
<path d="M21.3333 23.9999C21.3333 25.0608 21.7548 26.0782 22.5049 26.8284C23.255 27.5785 24.2725 27.9999 25.3333 27.9999C26.3942 27.9999 27.4116 27.5785 28.1618 26.8284C28.9119 26.0782 29.3333 25.0608 29.3333 23.9999C29.3333 22.9391 28.9119 21.9217 28.1618 21.1715C27.4116 20.4214 26.3942 19.9999 25.3333 19.9999C24.2725 19.9999 23.255 20.4214 22.5049 21.1715C21.7548 21.9217 21.3333 22.9391 21.3333 23.9999Z" stroke="#5C9B35" style="stroke:#5C9B35;stroke:color(display-p3 0.3608 0.6078 0.2078);stroke-opacity:1;" stroke-width="2.07549" stroke-linecap="round" stroke-linejoin="round"/>
<path d="M16 25.3333V20L12 16L18.6667 10.6667L21.3333 14.6667H25.3333" stroke="#5C9B35" style="stroke:#5C9B35;stroke:color(display-p3 0.3608 0.6078 0.2078);stroke-opacity:1;" stroke-width="2.07549" stroke-linecap="round" stroke-linejoin="round"/>
<path d="M21.3333 6.66667C21.3333 7.02029 21.4738 7.35943 21.7239 7.60947C21.9739 7.85952 22.313 8 22.6667 8C23.0203 8 23.3594 7.85952 23.6095 7.60947C23.8595 7.35943 24 7.02029 24 6.66667C24 6.31304 23.8595 5.97391 23.6095 5.72386C23.3594 5.47381 23.0203 5.33333 22.6667 5.33333C22.313 5.33333 21.9739 5.47381 21.7239 5.72386C21.4738 5.97391 21.3333 6.31304 21.3333 6.66667Z" stroke="#5C9B35" style="stroke:#5C9B35;stroke:color(display-p3 0.3608 0.6078 0.2078);stroke-opacity:1;" stroke-width="2.07549" stroke-linecap="round" stroke-linejoin="round"/>
</g>
<defs>
<clipPath id="clip0_1_265">
<rect width="31.1323" height="31.1323" fill="white" style="fill:white;fill-opacity:1;" transform="scale(1.02787)"/>
</clipPath>
</defs>
</svg>
