<svg width="1325" height="798" viewBox="0 0 1325 798" fill="none" xmlns="http://www.w3.org/2000/svg">
<path d="M0 38.5269C0 17.2491 17.2491 0 38.5269 0H833.412C854.689 0 871.939 17.2491 871.939 38.5269V172.682C871.939 193.96 889.188 211.209 910.465 211.209H1286.47C1307.75 211.209 1325 228.458 1325 249.736V759.375C1325 780.652 1307.75 797.901 1286.47 797.901H610.511C589.233 797.901 571.984 780.652 571.984 759.375V319.679C571.984 298.401 554.735 281.152 533.457 281.152H38.5268C17.249 281.152 0 263.903 0 242.625V38.5269Z" fill="white" style="fill:white;fill-opacity:1;"/>
</svg>
