<svg width="28" height="28" viewBox="0 0 28 28" fill="none" xmlns="http://www.w3.org/2000/svg">
<g clip-path="url(#clip0_1_525)">
<path d="M9.91661 15.7497L8.16662 13.9997L9.91661 12.2497" stroke="#5C9B35" style="stroke:#5C9B35;stroke:color(display-p3 0.3608 0.6078 0.2078);stroke-opacity:1;" stroke-width="1.81321" stroke-linecap="round" stroke-linejoin="round"/>
<path d="M18.0832 12.2497L19.8332 13.9997L18.0832 15.7497" stroke="#5C9B35" style="stroke:#5C9B35;stroke:color(display-p3 0.3608 0.6078 0.2078);stroke-opacity:1;" stroke-width="1.81321" stroke-linecap="round" stroke-linejoin="round"/>
<path d="M3.49998 14.0001C3.49998 15.3789 3.77157 16.7443 4.29924 18.0182C4.82692 19.2921 5.60034 20.4496 6.57535 21.4246C7.55036 22.3997 8.70786 23.1731 9.98177 23.7008C11.2557 24.2284 12.6211 24.5 13.9999 24.5C15.3788 24.5 16.7442 24.2284 18.0181 23.7008C19.292 23.1731 20.4495 22.3997 21.4245 21.4246C22.3995 20.4496 23.1729 19.2921 23.7006 18.0182C24.2283 16.7443 24.4999 15.3789 24.4999 14.0001C24.4999 12.6212 24.2283 11.2558 23.7006 9.98191C23.1729 8.708 22.3995 7.5505 21.4245 6.57549C20.4495 5.60048 19.292 4.82706 18.0181 4.29939C16.7442 3.77171 15.3788 3.50013 13.9999 3.50013C12.6211 3.50013 11.2557 3.77171 9.98177 4.29939C8.70786 4.82706 7.55036 5.60048 6.57535 6.57549C5.60034 7.5505 4.82692 8.708 4.29924 9.98191C3.77157 11.2558 3.49998 12.6212 3.49998 14.0001Z" stroke="#5C9B35" style="stroke:#5C9B35;stroke:color(display-p3 0.3608 0.6078 0.2078);stroke-opacity:1;" stroke-width="1.81321" stroke-linecap="round" stroke-linejoin="round"/>
<path d="M15.1666 11.0835L12.8333 17.5001" stroke="#5C9B35" style="stroke:#5C9B35;stroke:color(display-p3 0.3608 0.6078 0.2078);stroke-opacity:1;" stroke-width="1.81321" stroke-linecap="round" stroke-linejoin="round"/>
</g>
<defs>
<clipPath id="clip0_1_525">
<rect width="27.1981" height="27.1981" fill="white" style="fill:white;fill-opacity:1;" transform="scale(1.02948)"/>
</clipPath>
</defs>
</svg>
