<svg width="28" height="28" viewBox="0 0 28 28" fill="none" xmlns="http://www.w3.org/2000/svg">
<g clip-path="url(#clip0_1_520)">
<path d="M5.8333 8.16682H6.99997C7.6188 8.16682 8.21229 7.92098 8.64987 7.4834C9.08745 7.04582 9.33329 6.45233 9.33329 5.83349C9.33329 5.52408 9.4562 5.22733 9.67499 5.00854C9.89378 4.78975 10.1905 4.66683 10.4999 4.66683H17.4999C17.8093 4.66683 18.1061 4.78975 18.3249 5.00854C18.5437 5.22733 18.6666 5.52408 18.6666 5.83349C18.6666 6.45233 18.9124 7.04582 19.35 7.4834C19.7876 7.92098 20.3811 8.16682 20.9999 8.16682H22.1665C22.7854 8.16682 23.3789 8.41265 23.8165 8.85023C24.254 9.28781 24.4999 9.8813 24.4999 10.5001V21.0001C24.4999 21.6189 24.254 22.2124 23.8165 22.65C23.3789 23.0876 22.7854 23.3334 22.1665 23.3334H5.8333C5.21447 23.3334 4.62098 23.0876 4.1834 22.65C3.74582 22.2124 3.49998 21.6189 3.49998 21.0001V10.5001C3.49998 9.8813 3.74582 9.28781 4.1834 8.85023C4.62098 8.41265 5.21447 8.16682 5.8333 8.16682Z" stroke="#5C9B35" style="stroke:#5C9B35;stroke:color(display-p3 0.3608 0.6078 0.2078);stroke-opacity:1;" stroke-width="1.81321" stroke-linecap="round" stroke-linejoin="round"/>
<path d="M11.0833 17.5001C11.4635 17.8882 11.9173 18.1964 12.4181 18.4069C12.9189 18.6173 13.4567 18.7257 13.9999 18.7257C14.5432 18.7257 15.0809 18.6173 15.5818 18.4069C16.0826 18.1964 16.5364 17.8882 16.9166 17.5001" stroke="#5C9B35" style="stroke:#5C9B35;stroke:color(display-p3 0.3608 0.6078 0.2078);stroke-opacity:1;" stroke-width="1.81321" stroke-linecap="round" stroke-linejoin="round"/>
<path d="M17.4999 12.8333H17.5116" stroke="#5C9B35" style="stroke:#5C9B35;stroke:color(display-p3 0.3608 0.6078 0.2078);stroke-opacity:1;" stroke-width="1.81321" stroke-linecap="round" stroke-linejoin="round"/>
<path d="M10.4999 12.8333H10.5116" stroke="#5C9B35" style="stroke:#5C9B35;stroke:color(display-p3 0.3608 0.6078 0.2078);stroke-opacity:1;" stroke-width="1.81321" stroke-linecap="round" stroke-linejoin="round"/>
</g>
<defs>
<clipPath id="clip0_1_520">
<rect width="27.1981" height="27.1981" fill="white" style="fill:white;fill-opacity:1;" transform="scale(1.02948)"/>
</clipPath>
</defs>
</svg>
