<svg width="24" height="24" viewBox="0 0 24 24" fill="none" xmlns="http://www.w3.org/2000/svg">
<circle cx="12" cy="12" r="12" fill="#101010" style="fill:#101010;fill:color(display-p3 0.0625 0.0625 0.0625);fill-opacity:1;"/>
<path d="M16.0013 16.4966C16.2665 16.4966 16.5209 16.3913 16.7084 16.2037C16.896 16.0162 17.0013 15.7618 17.0013 15.4966V13.0546C17.0013 12.7894 16.896 12.5351 16.7084 12.3475C16.5209 12.16 16.2665 12.0546 16.0013 12.0546H14.6133C14.6133 11.7036 14.6343 11.3516 14.6753 11.0006C14.7373 10.6286 14.8413 10.2976 14.9853 10.0086C15.1303 9.71862 15.3163 9.49162 15.5443 9.32562C15.7713 9.13962 16.0603 9.04663 16.4123 9.04663V7.49663C15.8333 7.49663 15.3273 7.62063 14.8923 7.86863C14.4611 8.11411 14.0904 8.45308 13.8073 8.86062C13.5232 9.30994 13.3139 9.80232 13.1873 10.3186C13.0598 10.8884 12.9974 11.4708 13.0013 12.0546V15.4966C13.0013 15.7618 13.1067 16.0162 13.2942 16.2037C13.4818 16.3913 13.7361 16.4966 14.0013 16.4966H16.0013ZM10.0013 16.4966C10.2665 16.4966 10.5209 16.3913 10.7084 16.2037C10.896 16.0162 11.0013 15.7618 11.0013 15.4966V13.0546C11.0013 12.7894 10.896 12.5351 10.7084 12.3475C10.5209 12.16 10.2665 12.0546 10.0013 12.0546H8.61332C8.61332 11.7036 8.63432 11.3516 8.67532 11.0006C8.73732 10.6286 8.84132 10.2976 8.98532 10.0086C9.13032 9.71862 9.31632 9.49162 9.54432 9.32562C9.77132 9.13962 10.0603 9.04663 10.4123 9.04663V7.49663C9.83332 7.49663 9.32732 7.62063 8.89232 7.86863C8.46111 8.11411 8.09037 8.45308 7.80732 8.86062C7.52325 9.30994 7.31387 9.80232 7.18732 10.3186C7.05981 10.8884 6.99741 11.4708 7.00132 12.0546V15.4966C7.00132 15.7618 7.10668 16.0162 7.29422 16.2037C7.48175 16.3913 7.73611 16.4966 8.00132 16.4966H10.0013Z" fill="white" style="fill:white;fill-opacity:1;"/>
</svg>
