<svg width="25" height="25" viewBox="0 0 25 25" fill="none" xmlns="http://www.w3.org/2000/svg">
<g clip-path="url(#clip0_1_481)">
<path d="M20.8333 18.7499C20.8333 18.1974 20.6138 17.6675 20.2231 17.2768C19.8324 16.8861 19.3025 16.6666 18.75 16.6666C18.1974 16.6666 17.6675 16.8861 17.2768 17.2768C16.8861 17.6675 16.6666 18.1974 16.6666 18.7499C16.6666 19.3024 16.8861 19.8323 17.2768 20.2231C17.6675 20.6138 18.1974 20.8332 18.75 20.8332C19.3025 20.8332 19.8324 20.6138 20.2231 20.2231C20.6138 19.8323 20.8333 19.3024 20.8333 18.7499Z" stroke="#231E30" style="stroke:#231E30;stroke:color(display-p3 0.1373 0.1176 0.1882);stroke-opacity:1;" stroke-width="2.01637" stroke-linecap="round" stroke-linejoin="round"/>
<path d="M8.33331 18.7499C8.33331 18.1974 8.11381 17.6675 7.72311 17.2768C7.33241 16.8861 6.80251 16.6666 6.24998 16.6666C5.69744 16.6666 5.16754 16.8861 4.77684 17.2768C4.38614 17.6675 4.16665 18.1974 4.16665 18.7499C4.16665 19.3024 4.38614 19.8323 4.77684 20.2231C5.16754 20.6138 5.69744 20.8332 6.24998 20.8332C6.80251 20.8332 7.33241 20.6138 7.72311 20.2231C8.11381 19.8323 8.33331 19.3024 8.33331 18.7499Z" stroke="#231E30" style="stroke:#231E30;stroke:color(display-p3 0.1373 0.1176 0.1882);stroke-opacity:1;" stroke-width="2.01637" stroke-linecap="round" stroke-linejoin="round"/>
<path d="M8.33331 6.24998C8.33331 5.69744 8.11381 5.16754 7.72311 4.77684C7.33241 4.38614 6.80251 4.16665 6.24998 4.16665C5.69744 4.16665 5.16754 4.38614 4.77684 4.77684C4.38614 5.16754 4.16665 5.69744 4.16665 6.24998C4.16665 6.80251 4.38614 7.33241 4.77684 7.72311C5.16754 8.11381 5.69744 8.33331 6.24998 8.33331C6.80251 8.33331 7.33241 8.11381 7.72311 7.72311C8.11381 7.33241 8.33331 6.80251 8.33331 6.24998Z" stroke="#231E30" style="stroke:#231E30;stroke:color(display-p3 0.1373 0.1176 0.1882);stroke-opacity:1;" stroke-width="2.01637" stroke-linecap="round" stroke-linejoin="round"/>
<path d="M20.8333 6.24998C20.8333 5.69744 20.6138 5.16754 20.2231 4.77684C19.8324 4.38614 19.3025 4.16665 18.75 4.16665C18.1974 4.16665 17.6675 4.38614 17.2768 4.77684C16.8861 5.16754 16.6666 5.69744 16.6666 6.24998C16.6666 6.80251 16.8861 7.33241 17.2768 7.72311C17.6675 8.11381 18.1974 8.33331 18.75 8.33331C19.3025 8.33331 19.8324 8.11381 20.2231 7.72311C20.6138 7.33241 20.8333 6.80251 20.8333 6.24998Z" stroke="#231E30" style="stroke:#231E30;stroke:color(display-p3 0.1373 0.1176 0.1882);stroke-opacity:1;" stroke-width="2.01637" stroke-linecap="round" stroke-linejoin="round"/>
<path d="M14.5833 12.5002C14.5833 11.9477 14.3638 11.4178 13.9731 11.0271C13.5824 10.6364 13.0525 10.4169 12.5 10.4169C11.9475 10.4169 11.4176 10.6364 11.0269 11.0271C10.6362 11.4178 10.4167 11.9477 10.4167 12.5002C10.4167 13.0527 10.6362 13.5826 11.0269 13.9733C11.4176 14.364 11.9475 14.5835 12.5 14.5835C13.0525 14.5835 13.5824 14.364 13.9731 13.9733C14.3638 13.5826 14.5833 13.0527 14.5833 12.5002Z" stroke="#231E30" style="stroke:#231E30;stroke:color(display-p3 0.1373 0.1176 0.1882);stroke-opacity:1;" stroke-width="2.01637" stroke-linecap="round" stroke-linejoin="round"/>
<path d="M6.24997 8.33329V16.6666" stroke="#231E30" style="stroke:#231E30;stroke:color(display-p3 0.1373 0.1176 0.1882);stroke-opacity:1;" stroke-width="2.01637" stroke-linecap="round" stroke-linejoin="round"/>
<path d="M18.75 16.6666V8.33329" stroke="#231E30" style="stroke:#231E30;stroke:color(display-p3 0.1373 0.1176 0.1882);stroke-opacity:1;" stroke-width="2.01637" stroke-linecap="round" stroke-linejoin="round"/>
<path d="M8.33329 6.25022H16.6666" stroke="#231E30" style="stroke:#231E30;stroke:color(display-p3 0.1373 0.1176 0.1882);stroke-opacity:1;" stroke-width="2.01637" stroke-linecap="round" stroke-linejoin="round"/>
<path d="M16.6666 18.7502H8.33329" stroke="#231E30" style="stroke:#231E30;stroke:color(display-p3 0.1373 0.1176 0.1882);stroke-opacity:1;" stroke-width="2.01637" stroke-linecap="round" stroke-linejoin="round"/>
<path d="M7.81246 7.81265L10.9375 10.9376" stroke="#231E30" style="stroke:#231E30;stroke:color(display-p3 0.1373 0.1176 0.1882);stroke-opacity:1;" stroke-width="2.01637" stroke-linecap="round" stroke-linejoin="round"/>
<path d="M14.0625 14.0624L17.1875 17.1874" stroke="#231E30" style="stroke:#231E30;stroke:color(display-p3 0.1373 0.1176 0.1882);stroke-opacity:1;" stroke-width="2.01637" stroke-linecap="round" stroke-linejoin="round"/>
<path d="M17.1875 7.81265L14.0625 10.9376" stroke="#231E30" style="stroke:#231E30;stroke:color(display-p3 0.1373 0.1176 0.1882);stroke-opacity:1;" stroke-width="2.01637" stroke-linecap="round" stroke-linejoin="round"/>
<path d="M10.9375 14.0624L7.81246 17.1874" stroke="#231E30" style="stroke:#231E30;stroke:color(display-p3 0.1373 0.1176 0.1882);stroke-opacity:1;" stroke-width="2.01637" stroke-linecap="round" stroke-linejoin="round"/>
</g>
<defs>
<clipPath id="clip0_1_481">
<rect width="24.1964" height="24.1964" fill="white" style="fill:white;fill-opacity:1;" transform="scale(1.03321)"/>
</clipPath>
</defs>
</svg>
