<svg width="28" height="28" viewBox="0 0 28 28" fill="none" xmlns="http://www.w3.org/2000/svg">
<g clip-path="url(#clip0_1_510)">
<path d="M16.3531 20.9998L13.9999 23.3331L5.24997 14.6672C4.67283 14.1056 4.21823 13.4305 3.91478 12.6846C3.61134 11.9387 3.46564 11.138 3.48684 10.333C3.50805 9.52795 3.6957 8.73604 4.03799 8.00711C4.38029 7.27818 4.8698 6.62802 5.4757 6.09757C6.08161 5.56712 6.79078 5.16787 7.55857 4.92496C8.32636 4.68206 9.13612 4.60075 9.93687 4.68617C10.7376 4.77159 11.512 5.02188 12.2113 5.42129C12.9106 5.8207 13.5195 6.36056 13.9999 7.00689C14.9126 5.79185 16.2633 4.98092 17.7648 4.74666C19.2663 4.51241 20.7999 4.87331 22.0393 5.75259C23.2787 6.63186 24.126 7.96008 24.401 9.45462C24.676 10.9491 24.357 12.492 23.5117 13.7549" stroke="#5C9B35" style="stroke:#5C9B35;stroke:color(display-p3 0.3608 0.6078 0.2078);stroke-opacity:1;" stroke-width="1.81321" stroke-linecap="round" stroke-linejoin="round"/>
<path d="M18.6549 23.3334L23.5514 18.4066C24.157 17.7931 24.4965 16.9657 24.4965 16.1036C24.4965 15.2416 24.157 14.4142 23.5514 13.8007C23.2538 13.4981 22.8991 13.2577 22.5079 13.0933C22.1166 12.9289 21.6966 12.8439 21.2723 12.8431C20.8479 12.8424 20.4276 12.9259 20.0358 13.0889C19.6439 13.2518 19.2884 13.491 18.9897 13.7925L18.6631 14.1215L18.3376 13.7913C18.04 13.4888 17.6853 13.2483 17.294 13.084C16.9028 12.9196 16.4828 12.8346 16.0585 12.8338C15.6341 12.833 15.2138 12.9166 14.822 13.0795C14.4301 13.2425 14.0746 13.4817 13.7759 13.7832C13.1692 14.3956 12.8282 15.2224 12.8267 16.0845C12.8251 16.9465 13.1632 17.7745 13.7678 18.3891L18.6467 23.3334H18.6549Z" stroke="#5C9B35" style="stroke:#5C9B35;stroke:color(display-p3 0.3608 0.6078 0.2078);stroke-opacity:1;" stroke-width="1.81321" stroke-linecap="round" stroke-linejoin="round"/>
</g>
<defs>
<clipPath id="clip0_1_510">
<rect width="27.1981" height="27.1981" fill="white" style="fill:white;fill-opacity:1;" transform="scale(1.02948)"/>
</clipPath>
</defs>
</svg>
