<svg width="141" height="55" viewBox="0 0 141 55" fill="none" xmlns="http://www.w3.org/2000/svg">
<rect x="0.527708" y="0.527708" width="139.868" height="53.9446" rx="26.9426" stroke="#101010" style="stroke:#101010;stroke:color(display-p3 0.0625 0.0625 0.0625);stroke-opacity:1;" stroke-width="1.05542"/>
<path d="M34.8156 38.7996L10.5655 14.5495L14.5495 10.5656L38.7995 34.8128L38.7995 13.4422L44.4345 13.4422L44.4345 44.4345L13.4422 44.4345L13.4422 38.7996L34.8156 38.7996Z" fill="white" style="fill:white;fill-opacity:1;"/>
<rect x="0.527708" y="0.527708" width="121.217" height="53.9446" rx="26.9426" stroke="#101010" style="stroke:#101010;stroke:color(display-p3 0.0625 0.0625 0.0625);stroke-opacity:1;" stroke-width="1.05542"/>
<path d="M34.8156 38.7996L10.5655 14.5495L14.5495 10.5656L38.7995 34.8128L38.7995 13.4422L44.4345 13.4422L44.4345 44.4345L13.4422 44.4345L13.4422 38.7996L34.8156 38.7996Z" fill="white" style="fill:white;fill-opacity:1;"/>
<rect x="0.527708" y="0.527708" width="104.637" height="53.9446" rx="26.9426" stroke="#101010" style="stroke:#101010;stroke:color(display-p3 0.0625 0.0625 0.0625);stroke-opacity:1;" stroke-width="1.05542"/>
<path d="M60.162 38.7996L35.9119 14.5495L39.8958 10.5656L64.1459 34.8128L64.1459 13.4422L69.7808 13.4422L69.7808 44.4345L38.7886 44.4345L38.7886 38.7996L60.162 38.7996Z" fill="#101010" style="fill:#101010;fill:color(display-p3 0.0625 0.0625 0.0625);fill-opacity:1;"/>
</svg>
