<svg width="45" height="45" viewBox="0 0 45 45" fill="none" xmlns="http://www.w3.org/2000/svg">
<g clip-path="url(#clip0_1_409)">
<path d="M21.5625 39.3748H15C14.0054 39.3748 13.0516 38.9798 12.3483 38.2765C11.6451 37.5732 11.25 36.6194 11.25 35.6249V9.3749C11.25 8.38034 11.6451 7.42651 12.3483 6.72325C13.0516 6.01999 14.0054 5.62491 15 5.62491H30C30.9945 5.62491 31.9483 6.01999 32.6516 6.72325C33.3549 7.42651 33.7499 8.38034 33.7499 9.3749V20.6249" stroke="#56E000" style="stroke:#56E000;stroke:color(display-p3 0.3374 0.8798 0.0000);stroke-opacity:1;" stroke-width="2.01637" stroke-linecap="round" stroke-linejoin="round"/>
<path d="M20.625 7.49996H24.375" stroke="#56E000" style="stroke:#56E000;stroke:color(display-p3 0.3374 0.8798 0.0000);stroke-opacity:1;" stroke-width="2.01637" stroke-linecap="round" stroke-linejoin="round"/>
<path d="M33.7499 41.25L40.0312 35.0926C40.4164 34.7188 40.7228 34.2716 40.9323 33.7775C41.1418 33.2833 41.2502 32.7522 41.2511 32.2155C41.252 31.6787 41.1453 31.1473 40.9374 30.6525C40.7295 30.1576 40.4245 29.7095 40.0406 29.3344C39.2571 28.5682 38.2053 28.1382 37.1094 28.1361C36.0135 28.134 34.9601 28.56 34.1737 29.3232L33.7537 29.7357L33.3356 29.3232C32.5522 28.5575 31.5008 28.1279 30.4054 28.1258C29.3099 28.1237 28.2569 28.5493 27.4706 29.3119C27.0853 29.6856 26.7787 30.1327 26.569 30.6267C26.3594 31.1208 26.2508 31.6519 26.2497 32.1886C26.2487 32.7254 26.3552 33.2569 26.5629 33.7517C26.7707 34.2466 27.0755 34.6949 27.4593 35.0701L33.7499 41.25Z" stroke="#56E000" style="stroke:#56E000;stroke:color(display-p3 0.3374 0.8798 0.0000);stroke-opacity:1;" stroke-width="2.01637" stroke-linecap="round" stroke-linejoin="round"/>
</g>
<defs>
<clipPath id="clip0_1_409">
<rect width="44.36" height="44.36" fill="white" style="fill:white;fill-opacity:1;" transform="scale(1.01442)"/>
</clipPath>
</defs>
</svg>
