<svg width="25" height="25" viewBox="0 0 25 25" fill="none" xmlns="http://www.w3.org/2000/svg">
<g clip-path="url(#clip0_1_465)">
<path d="M11.4583 3.12486H21.875V11.4582H18.75L14.5833 13.5415V11.4582H11.4583V3.12486Z" stroke="#231E30" style="stroke:#231E30;stroke:color(display-p3 0.1373 0.1176 0.1882);stroke-opacity:1;" stroke-width="2.01637" stroke-linecap="round" stroke-linejoin="round"/>
<path d="M15.625 16.6668V20.8334C15.625 21.1097 15.5152 21.3747 15.3199 21.57C15.1245 21.7654 14.8596 21.8751 14.5833 21.8751H6.25C5.97373 21.8751 5.70878 21.7654 5.51343 21.57C5.31808 21.3747 5.20833 21.1097 5.20833 20.8334V6.25011C5.20833 5.97384 5.31808 5.70889 5.51343 5.51354C5.70878 5.31819 5.97373 5.20844 6.25 5.20844H8.33333" stroke="#231E30" style="stroke:#231E30;stroke:color(display-p3 0.1373 0.1176 0.1882);stroke-opacity:1;" stroke-width="2.01637" stroke-linecap="round" stroke-linejoin="round"/>
<path d="M10.4167 18.7502V18.7606" stroke="#231E30" style="stroke:#231E30;stroke:color(display-p3 0.1373 0.1176 0.1882);stroke-opacity:1;" stroke-width="2.01637" stroke-linecap="round" stroke-linejoin="round"/>
</g>
<defs>
<clipPath id="clip0_1_465">
<rect width="24.1964" height="24.1964" fill="white" style="fill:white;fill-opacity:1;" transform="scale(1.03321)"/>
</clipPath>
</defs>
</svg>
