<svg width="163" height="21" viewBox="0 0 163 21" fill="none" xmlns="http://www.w3.org/2000/svg">
<path d="M149.975 8.78846V20.4713H144.371V0.263126H149.712V3.8285H149.949C150.396 2.6532 151.146 1.72348 152.199 1.03935C153.251 0.34645 154.527 0 156.027 0C157.43 0 158.654 0.306982 159.698 0.920946C160.742 1.53491 161.553 2.412 162.132 3.55222C162.711 4.68367 163 6.03439 163 7.60438V20.4713H157.395V8.60427C157.404 7.36757 157.088 6.40277 156.448 5.70987C155.808 5.00819 154.926 4.65735 153.804 4.65735C153.049 4.65735 152.383 4.81962 151.804 5.14414C151.234 5.46866 150.787 5.94229 150.462 6.56503C150.146 7.17899 149.984 7.92014 149.975 8.78846Z" fill="#88DD52" style="fill:#88DD52;fill:color(display-p3 0.5321 0.8683 0.3231);fill-opacity:1;"/>
<path d="M130.78 20.866C128.737 20.866 126.969 20.4318 125.478 19.5635C123.996 18.6864 122.851 17.4673 122.045 15.9061C121.238 14.3361 120.834 12.5161 120.834 10.4462C120.834 8.35868 121.238 6.53433 122.045 4.97311C122.851 3.40311 123.996 2.18396 125.478 1.31563C126.969 0.438544 128.737 0 130.78 0C132.824 0 134.587 0.438544 136.069 1.31563C137.56 2.18396 138.709 3.40311 139.516 4.97311C140.323 6.53433 140.727 8.35868 140.727 10.4462C140.727 12.5161 140.323 14.3361 139.516 15.9061C138.709 17.4673 137.56 18.6864 136.069 19.5635C134.587 20.4318 132.824 20.866 130.78 20.866ZM130.807 16.5244C131.736 16.5244 132.513 16.2613 133.135 15.735C133.758 15.2 134.227 14.472 134.543 13.5511C134.868 12.6301 135.03 11.582 135.03 10.4067C135.03 9.23139 134.868 8.18326 134.543 7.26232C134.227 6.34137 133.758 5.61339 133.135 5.07836C132.513 4.54333 131.736 4.27582 130.807 4.27582C129.868 4.27582 129.079 4.54333 128.439 5.07836C127.807 5.61339 127.329 6.34137 127.005 7.26232C126.689 8.18326 126.531 9.23139 126.531 10.4067C126.531 11.582 126.689 12.6301 127.005 13.5511C127.329 14.472 127.807 15.2 128.439 15.735C129.079 16.2613 129.868 16.5244 130.807 16.5244Z" fill="#88DD52" style="fill:#88DD52;fill:color(display-p3 0.5321 0.8683 0.3231);fill-opacity:1;"/>
<path d="M108.717 20.866C106.638 20.866 104.849 20.445 103.349 19.603C101.858 18.7522 100.709 17.5506 99.902 15.9981C99.0951 14.4369 98.6916 12.5906 98.6916 10.4593C98.6916 8.38061 99.0951 6.55626 99.902 4.98627C100.709 3.41627 101.845 2.19273 103.31 1.31563C104.783 0.438544 106.511 0 108.493 0C109.826 0 111.067 0.214888 112.216 0.644662C113.374 1.06567 114.383 1.70156 115.242 2.55233C116.111 3.40311 116.786 4.47317 117.268 5.76249C117.751 7.04304 117.992 8.54287 117.992 10.262V11.8013H100.928V8.32798H112.716C112.716 7.52106 112.541 6.80623 112.19 6.18349C111.839 5.56076 111.352 5.07397 110.73 4.72314C110.116 4.36353 109.401 4.18373 108.585 4.18373C107.734 4.18373 106.98 4.38107 106.322 4.77576C105.673 5.16168 105.165 5.68355 104.796 6.34137C104.428 6.99042 104.239 7.71402 104.23 8.51217V11.8144C104.23 12.8143 104.415 13.6782 104.783 14.4062C105.16 15.1342 105.691 15.6956 106.375 16.0902C107.059 16.4849 107.87 16.6823 108.809 16.6823C109.432 16.6823 110.002 16.5946 110.519 16.4192C111.037 16.2437 111.48 15.9806 111.848 15.6298C112.216 15.2789 112.497 14.8492 112.69 14.3404L117.874 14.6825C117.61 15.928 117.071 17.0156 116.255 17.9453C115.448 18.8662 114.405 19.5855 113.124 20.1029C111.852 20.6116 110.383 20.866 108.717 20.866Z" fill="black" style="fill:black;fill-opacity:1;"/>
<path d="M97.2907 0.263128L90.2258 20.4713H83.9107L76.8457 0.263128H82.7661L86.963 14.722H87.1735L91.3572 0.263128H97.2907Z" fill="black" style="fill:black;fill-opacity:1;"/>
<path d="M65.5118 20.866C63.4682 20.866 61.7009 20.4318 60.2098 19.5635C58.7275 18.6864 57.5829 17.4673 56.776 15.9061C55.9691 14.3361 55.5656 12.5161 55.5656 10.4462C55.5656 8.35868 55.9691 6.53433 56.776 4.97311C57.5829 3.40311 58.7275 2.18396 60.2098 1.31563C61.7009 0.438544 63.4682 0 65.5118 0C67.5555 0 69.3184 0.438544 70.8007 1.31563C72.2918 2.18396 73.4407 3.40311 74.2477 4.97311C75.0546 6.53433 75.4581 8.35868 75.4581 10.4462C75.4581 12.5161 75.0546 14.3361 74.2477 15.9061C73.4407 17.4673 72.2918 18.6864 70.8007 19.5635C69.3184 20.4318 67.5555 20.866 65.5118 20.866ZM65.5381 16.5244C66.4679 16.5244 67.2441 16.2613 67.8668 15.735C68.4896 15.2 68.9588 14.472 69.2746 13.5511C69.5991 12.6301 69.7613 11.582 69.7613 10.4067C69.7613 9.23139 69.5991 8.18326 69.2746 7.26232C68.9588 6.34137 68.4896 5.61339 67.8668 5.07836C67.2441 4.54333 66.4679 4.27582 65.5381 4.27582C64.5997 4.27582 63.8103 4.54333 63.17 5.07836C62.5385 5.61339 62.0605 6.34137 61.736 7.26232C61.4202 8.18326 61.2623 9.23139 61.2623 10.4067C61.2623 11.582 61.4202 12.6301 61.736 13.5511C62.0605 14.472 62.5385 15.2 63.17 15.735C63.8103 16.2613 64.5997 16.5244 65.5381 16.5244Z" fill="black" style="fill:black;fill-opacity:1;"/>
<path d="M22.5895 20.4713V0.263126H27.931V3.8285H28.1678C28.5888 2.64443 29.2905 1.71033 30.2728 1.0262C31.2552 0.342066 32.4305 0 33.7987 0C35.1845 0 36.3642 0.34645 37.3378 1.03935C38.3114 1.72348 38.9604 2.6532 39.2849 3.8285H39.4954C39.9077 2.67074 40.6532 1.74541 41.732 1.05251C42.8196 0.350836 44.1045 0 45.5868 0C47.4726 0 49.0031 0.600808 50.1784 1.80242C51.3625 2.99527 51.9545 4.68805 51.9545 6.88078V20.4713H46.3631V7.98592C46.3631 6.86324 46.0648 6.02123 45.4684 5.45989C44.872 4.89856 44.1265 4.61789 43.2318 4.61789C42.2144 4.61789 41.4206 4.94241 40.8505 5.59146C40.2804 6.23173 39.9954 7.07813 39.9954 8.13064V20.4713H34.5618V7.86751C34.5618 6.8764 34.2767 6.08701 33.7066 5.49936C33.1453 4.91171 32.4041 4.61789 31.4832 4.61789C30.8605 4.61789 30.2991 4.77576 29.7992 5.09151C29.308 5.3985 28.9177 5.83266 28.6283 6.394C28.3388 6.94656 28.1941 7.59561 28.1941 8.34114V20.4713H22.5895Z" fill="black" style="fill:black;fill-opacity:1;"/>
<path d="M5.99931 0.263128L9.7094 7.3281L13.5116 0.263128H19.2609L13.4063 10.3672L19.4188 20.4713H13.6958L9.7094 13.4853L5.7888 20.4713H0L5.99931 10.3672L0.210502 0.263128H5.99931Z" fill="black" style="fill:black;fill-opacity:1;"/>
</svg>
