<svg width="25" height="25" viewBox="0 0 25 25" fill="none" xmlns="http://www.w3.org/2000/svg">
<g clip-path="url(#clip0_1_476)">
<path d="M12.5 20.8331L4.6875 13.0956C4.17219 12.5941 3.76629 11.9914 3.49536 11.3254C3.22443 10.6594 3.09433 9.9445 3.11327 9.22573C3.1322 8.50696 3.29975 7.7999 3.60537 7.14907C3.91099 6.49824 4.34806 5.91773 4.88905 5.44411C5.43004 4.97049 6.06323 4.61402 6.74876 4.39713C7.43429 4.18025 8.1573 4.10766 8.87226 4.18393C9.58722 4.2602 10.2786 4.48367 10.903 4.84029C11.5273 5.1969 12.0711 5.67893 12.5 6.25601C13.2769 5.22059 14.4115 4.51158 15.6827 4.26719C16.9539 4.0228 18.2706 4.26055 19.376 4.93409C20.4815 5.60763 21.2965 6.66869 21.6622 7.91044C22.0279 9.15218 21.9181 10.4856 21.3542 11.6508" stroke="#231E30" style="stroke:#231E30;stroke:color(display-p3 0.1373 0.1176 0.1882);stroke-opacity:1;" stroke-width="2.01637" stroke-linecap="round" stroke-linejoin="round"/>
<path d="M22.001 20.9594C22.4382 20.5224 22.7359 19.9655 22.8566 19.3593C22.9772 18.7531 22.9154 18.1247 22.6789 17.5536C22.4424 16.9826 22.0418 16.4945 21.5279 16.151C21.014 15.8076 20.4098 15.6243 19.7917 15.6243C19.1736 15.6243 18.5693 15.8076 18.0554 16.151C17.5415 16.4945 17.141 16.9826 16.9045 17.5536C16.668 18.1247 16.6061 18.7531 16.7268 19.3593C16.8474 19.9655 17.1452 20.5224 17.5823 20.9594C18.0177 21.3958 18.7542 22.0479 19.7917 22.9166C20.8865 21.9896 21.624 21.3375 22.001 20.9594Z" stroke="#231E30" style="stroke:#231E30;stroke:color(display-p3 0.1373 0.1176 0.1882);stroke-opacity:1;" stroke-width="2.01637" stroke-linecap="round" stroke-linejoin="round"/>
<path d="M19.7917 18.7502V18.7606" stroke="#231E30" style="stroke:#231E30;stroke:color(display-p3 0.1373 0.1176 0.1882);stroke-opacity:1;" stroke-width="2.01637" stroke-linecap="round" stroke-linejoin="round"/>
</g>
<defs>
<clipPath id="clip0_1_476">
<rect width="24.1964" height="24.1964" fill="white" style="fill:white;fill-opacity:1;" transform="scale(1.03321)"/>
</clipPath>
</defs>
</svg>
