<svg width="25" height="25" viewBox="0 0 25 25" fill="none" xmlns="http://www.w3.org/2000/svg">
<g clip-path="url(#clip0_1_243)">
<path d="M9.89583 3.125H15.1042C15.5186 3.125 15.916 3.28962 16.209 3.58265C16.502 3.87567 16.6667 4.2731 16.6667 4.6875C16.6667 5.65443 16.2825 6.58177 15.5988 7.26549C14.9151 7.94922 13.9878 8.33333 13.0208 8.33333H11.9792C11.0122 8.33333 10.0849 7.94922 9.40117 7.26549C8.71744 6.58177 8.33333 5.65443 8.33333 4.6875C8.33333 4.2731 8.49795 3.87567 8.79097 3.58265C9.084 3.28962 9.48143 3.125 9.89583 3.125Z" stroke="#231E30" style="stroke:#231E30;stroke:color(display-p3 0.1373 0.1176 0.1882);stroke-opacity:1;" stroke-width="2" stroke-linecap="round" stroke-linejoin="round"/>
<path d="M4.16666 17.7083V16.6666C4.16666 14.4565 5.04464 12.3369 6.60744 10.7741C8.17024 9.21129 10.2899 8.33331 12.5 8.33331C14.7101 8.33331 16.8297 9.21129 18.3926 10.7741C19.9554 12.3369 20.8333 14.4565 20.8333 16.6666V17.7083C20.8333 18.8134 20.3943 19.8732 19.6129 20.6546C18.8315 21.436 17.7717 21.875 16.6667 21.875H8.33333C7.22826 21.875 6.16845 21.436 5.38705 20.6546C4.60565 19.8732 4.16666 18.8134 4.16666 17.7083Z" stroke="#231E30" style="stroke:#231E30;stroke:color(display-p3 0.1373 0.1176 0.1882);stroke-opacity:1;" stroke-width="2" stroke-linecap="round" stroke-linejoin="round"/>
</g>
<defs>
<clipPath id="clip0_1_243">
<rect width="24.0039" height="24.0039" fill="white" style="fill:white;fill-opacity:1;" transform="scale(1.0415)"/>
</clipPath>
</defs>
</svg>
