<svg width="45" height="45" viewBox="0 0 45 45" fill="none" xmlns="http://www.w3.org/2000/svg">
<g clip-path="url(#clip0_1_431)">
<path d="M5.62497 39.3748H39.3749" stroke="#56E000" style="stroke:#56E000;stroke:color(display-p3 0.3374 0.8798 0.0000);stroke-opacity:1;" stroke-width="2.01637" stroke-linecap="round" stroke-linejoin="round"/>
<path d="M5.62497 13.1249V14.9999C5.62497 16.4917 6.2176 17.9225 7.27249 18.9774C8.32738 20.0323 9.75812 20.6249 11.25 20.6249C12.7418 20.6249 14.1725 20.0323 15.2274 18.9774C16.2823 17.9225 16.8749 16.4917 16.8749 14.9999M5.62497 13.1249H39.3749M5.62497 13.1249L9.37496 5.62491H35.6249L39.3749 13.1249M16.8749 14.9999V13.1249M16.8749 14.9999C16.8749 16.4917 17.4676 17.9225 18.5225 18.9774C19.5774 20.0323 21.0081 20.6249 22.4999 20.6249C23.9918 20.6249 25.4225 20.0323 26.4774 18.9774C27.5323 17.9225 28.1249 16.4917 28.1249 14.9999M28.1249 14.9999V13.1249M28.1249 14.9999C28.1249 16.4917 28.7176 17.9225 29.7725 18.9774C30.8273 20.0323 32.2581 20.6249 33.7499 20.6249C35.2418 20.6249 36.6725 20.0323 37.7274 18.9774C38.7823 17.9225 39.3749 16.4917 39.3749 14.9999V13.1249" stroke="#56E000" style="stroke:#56E000;stroke:color(display-p3 0.3374 0.8798 0.0000);stroke-opacity:1;" stroke-width="2.01637" stroke-linecap="round" stroke-linejoin="round"/>
<path d="M9.37501 39.3749V20.3437" stroke="#56E000" style="stroke:#56E000;stroke:color(display-p3 0.3374 0.8798 0.0000);stroke-opacity:1;" stroke-width="2.01637" stroke-linecap="round" stroke-linejoin="round"/>
<path d="M35.6249 39.3749V20.3437" stroke="#56E000" style="stroke:#56E000;stroke:color(display-p3 0.3374 0.8798 0.0000);stroke-opacity:1;" stroke-width="2.01637" stroke-linecap="round" stroke-linejoin="round"/>
<path d="M16.875 39.375V31.875C16.875 30.8805 17.2701 29.9266 17.9733 29.2234C18.6766 28.5201 19.6304 28.125 20.625 28.125H24.375C25.3695 28.125 26.3233 28.5201 27.0266 29.2234C27.7299 29.9266 28.1249 30.8805 28.1249 31.875V39.375" stroke="#56E000" style="stroke:#56E000;stroke:color(display-p3 0.3374 0.8798 0.0000);stroke-opacity:1;" stroke-width="2.01637" stroke-linecap="round" stroke-linejoin="round"/>
</g>
<defs>
<clipPath id="clip0_1_431">
<rect width="44.36" height="44.36" fill="white" style="fill:white;fill-opacity:1;" transform="scale(1.01442)"/>
</clipPath>
</defs>
</svg>
