<svg width="564" height="194" viewBox="0 0 564 194" fill="none" xmlns="http://www.w3.org/2000/svg">
<path d="M564 20.7747C564 9.30113 554.699 0 543.225 0H267.209H203.887C192.414 0 183.113 9.30114 183.113 20.7747V68.9307C183.113 80.4042 173.812 89.7053 162.338 89.7053H20.7747C9.30117 89.7053 0 99.0065 0 110.48V173.205C0 184.679 9.30111 193.98 20.7747 193.98H246.434C257.908 193.98 267.209 184.679 267.209 173.205V134.344C267.209 122.87 276.51 113.569 287.984 113.569H543.225C554.699 113.569 564 104.268 564 92.7945L564 20.7747Z" fill="#E4FFD4" style="fill:#E4FFD4;fill:color(display-p3 0.8951 1.0000 0.8298);fill-opacity:1;"/>
</svg>
