<svg width="25" height="25" viewBox="0 0 25 25" fill="none" xmlns="http://www.w3.org/2000/svg">
<g clip-path="url(#clip0_1_488)">
<path d="M12.5 10.4167L8.96146 6.83337C8.5585 6.42348 8.3327 5.87169 8.3327 5.29691C8.3327 4.72212 8.5585 4.17034 8.96146 3.76045C9.15927 3.55888 9.39528 3.39876 9.6557 3.28945C9.91611 3.18015 10.1957 3.12385 10.4781 3.12385C10.7605 3.12385 11.0401 3.18015 11.3005 3.28945C11.561 3.39876 11.797 3.55888 11.9948 3.76045L12.5 4.1667L13.0052 3.76045C13.203 3.55888 13.439 3.39876 13.6994 3.28945C13.9599 3.18015 14.2395 3.12385 14.5219 3.12385C14.8043 3.12385 15.0839 3.18015 15.3443 3.28945C15.6047 3.39876 15.8407 3.55888 16.0385 3.76045C16.4415 4.17034 16.6673 4.72212 16.6673 5.29691C16.6673 5.87169 16.4415 6.42348 16.0385 6.83337L12.5 10.4167Z" stroke="#231E30" style="stroke:#231E30;stroke:color(display-p3 0.1373 0.1176 0.1882);stroke-opacity:1;" stroke-width="2.01637" stroke-linecap="round" stroke-linejoin="round"/>
<path d="M12.5 14.5835L8.96146 18.1669C8.5585 18.5768 8.3327 19.1285 8.3327 19.7033C8.3327 20.2781 8.5585 20.8299 8.96146 21.2398C9.15927 21.4414 9.39528 21.6015 9.6557 21.7108C9.91611 21.8201 10.1957 21.8764 10.4781 21.8764C10.7605 21.8764 11.0401 21.8201 11.3005 21.7108C11.561 21.6015 11.797 21.4414 11.9948 21.2398L12.5 20.8335L13.0052 21.2398C13.203 21.4414 13.439 21.6015 13.6994 21.7108C13.9599 21.8201 14.2395 21.8764 14.5219 21.8764C14.8043 21.8764 15.0839 21.8201 15.3443 21.7108C15.6047 21.6015 15.8407 21.4414 16.0385 21.2398C16.4415 20.8299 16.6673 20.2781 16.6673 19.7033C16.6673 19.1285 16.4415 18.5768 16.0385 18.1669L12.5 14.5835Z" stroke="#231E30" style="stroke:#231E30;stroke:color(display-p3 0.1373 0.1176 0.1882);stroke-opacity:1;" stroke-width="2.01637" stroke-linecap="round" stroke-linejoin="round"/>
<path d="M14.5833 12.5001L18.1667 8.96155C18.5766 8.5586 19.1283 8.3328 19.7031 8.3328C20.2779 8.3328 20.8297 8.5586 21.2396 8.96155C21.4412 9.15937 21.6013 9.39538 21.7106 9.65579C21.8199 9.91621 21.8762 10.1958 21.8762 10.4782C21.8762 10.7606 21.8199 11.0402 21.7106 11.3006C21.6013 11.5611 21.4412 11.7971 21.2396 11.9949L20.8333 12.5001L21.2396 13.0053C21.4412 13.2031 21.6013 13.4391 21.7106 13.6995C21.8199 13.96 21.8762 14.2395 21.8762 14.522C21.8762 14.8044 21.8199 15.084 21.7106 15.3444C21.6013 15.6048 21.4412 15.8408 21.2396 16.0386C20.8297 16.4416 20.2779 16.6674 19.7031 16.6674C19.1283 16.6674 18.5766 16.4416 18.1667 16.0386L14.5833 12.5001Z" stroke="#231E30" style="stroke:#231E30;stroke:color(display-p3 0.1373 0.1176 0.1882);stroke-opacity:1;" stroke-width="2.01637" stroke-linecap="round" stroke-linejoin="round"/>
<path d="M10.4167 12.5001L6.83333 8.96155C6.42344 8.5586 5.87166 8.3328 5.29688 8.3328C4.72209 8.3328 4.17031 8.5586 3.76042 8.96155C3.55885 9.15937 3.39873 9.39538 3.28942 9.65579C3.18012 9.91621 3.12382 10.1958 3.12382 10.4782C3.12382 10.7606 3.18012 11.0402 3.28942 11.3006C3.39873 11.5611 3.55885 11.7971 3.76042 11.9949L4.16667 12.5001L3.76042 13.0053C3.55885 13.2031 3.39873 13.4391 3.28942 13.6995C3.18012 13.96 3.12382 14.2395 3.12382 14.522C3.12382 14.8044 3.18012 15.084 3.28942 15.3444C3.39873 15.6048 3.55885 15.8408 3.76042 16.0386C4.17031 16.4416 4.72209 16.6674 5.29688 16.6674C5.87166 16.6674 6.42344 16.4416 6.83333 16.0386L10.4167 12.5001Z" stroke="#231E30" style="stroke:#231E30;stroke:color(display-p3 0.1373 0.1176 0.1882);stroke-opacity:1;" stroke-width="2.01637" stroke-linecap="round" stroke-linejoin="round"/>
</g>
<defs>
<clipPath id="clip0_1_488">
<rect width="24.1964" height="24.1964" fill="white" style="fill:white;fill-opacity:1;" transform="scale(1.03321)"/>
</clipPath>
</defs>
</svg>
