<svg width="23" height="23" viewBox="0 0 23 23" fill="none" xmlns="http://www.w3.org/2000/svg">
<circle cx="11.5" cy="11.5" r="11.5" fill="#101010" style="fill:#101010;fill:color(display-p3 0.0625 0.0625 0.0625);fill-opacity:1;"/>
<path d="M15.3333 15.8131C15.5875 15.8131 15.8312 15.7121 16.011 15.5324C16.1907 15.3527 16.2916 15.1089 16.2916 14.8547V12.5145C16.2916 12.2603 16.1907 12.0166 16.011 11.8368C15.8312 11.6571 15.5875 11.5562 15.3333 11.5562H14.0031C14.0031 11.2198 14.0233 10.8824 14.0626 10.5461C14.122 10.1896 14.2216 9.87236 14.3596 9.5954C14.4986 9.31748 14.6769 9.09994 14.8953 8.94086C15.1129 8.76261 15.3899 8.67348 15.7272 8.67348V7.18807C15.1723 7.18807 14.6874 7.3069 14.2705 7.54457C13.8573 7.77983 13.502 8.10467 13.2307 8.49523C12.9585 8.92583 12.7578 9.39769 12.6366 9.89248C12.5144 10.4385 12.4546 10.9966 12.4583 11.5562V14.8547C12.4583 15.1089 12.5593 15.3527 12.739 15.5324C12.9187 15.7121 13.1625 15.8131 13.4166 15.8131H15.3333ZM9.58331 15.8131C9.83748 15.8131 10.0812 15.7121 10.261 15.5324C10.4407 15.3527 10.5416 15.1089 10.5416 14.8547V12.5145C10.5416 12.2603 10.4407 12.0166 10.261 11.8368C10.0812 11.6571 9.83748 11.5562 9.58331 11.5562H8.25314C8.25314 11.2198 8.27327 10.8824 8.31256 10.5461C8.37198 10.1896 8.47164 9.87236 8.60964 9.5954C8.7486 9.31748 8.92685 9.09994 9.14535 8.94086C9.36289 8.76261 9.63985 8.67348 9.97718 8.67348V7.18807C9.42231 7.18807 8.93739 7.3069 8.52052 7.54457C8.10727 7.77983 7.75198 8.10467 7.48073 8.49523C7.20849 8.92583 7.00783 9.39769 6.88656 9.89248C6.76436 10.4385 6.70456 10.9966 6.70831 11.5562V14.8547C6.70831 15.1089 6.80928 15.3527 6.989 15.5324C7.16872 15.7121 7.41248 15.8131 7.66664 15.8131H9.58331Z" fill="white" style="fill:white;fill-opacity:1;"/>
</svg>
