<svg width="32" height="32" viewBox="0 0 32 32" fill="none" xmlns="http://www.w3.org/2000/svg">
<g clip-path="url(#clip0_1_312)">
<path d="M21.3332 24C22.0405 24 22.7188 24.2809 23.2189 24.781C23.719 25.2811 23.9999 25.9594 23.9999 26.6666C23.9999 25.9594 24.2809 25.2811 24.781 24.781C25.281 24.2809 25.9593 24 26.6666 24C25.9593 24 25.281 23.719 24.781 23.2189C24.2809 22.7188 23.9999 22.0405 23.9999 21.3333C23.9999 22.0405 23.719 22.7188 23.2189 23.2189C22.7188 23.719 22.0405 24 21.3332 24ZM21.3332 8C22.0405 8 22.7188 8.28095 23.2189 8.78104C23.719 9.28114 23.9999 9.95941 23.9999 10.6667C23.9999 9.95941 24.2809 9.28114 24.781 8.78104C25.281 8.28095 25.9593 8 26.6666 8C25.9593 8 25.281 7.71904 24.781 7.21895C24.2809 6.71885 23.9999 6.04058 23.9999 5.33333C23.9999 6.04058 23.719 6.71885 23.2189 7.21895C22.7188 7.71904 22.0405 8 21.3332 8ZM11.9999 24C11.9999 21.8782 12.8428 19.8434 14.3431 18.3431C15.8434 16.8428 17.8782 16 19.9999 16C17.8782 16 15.8434 15.1571 14.3431 13.6568C12.8428 12.1566 11.9999 10.1217 11.9999 8C11.9999 10.1217 11.1571 12.1566 9.65678 13.6568C8.15649 15.1571 6.12167 16 3.99994 16C6.12167 16 8.15649 16.8428 9.65678 18.3431C11.1571 19.8434 11.9999 21.8782 11.9999 24Z" stroke="white" style="stroke:white;stroke-opacity:1;" stroke-width="2.08525" stroke-linecap="round" stroke-linejoin="round"/>
</g>
<defs>
<clipPath id="clip0_1_312">
<rect width="31.2788" height="31.2788" fill="white" style="fill:white;fill-opacity:1;" transform="scale(1.02306)"/>
</clipPath>
</defs>
</svg>
