<svg width="486" height="174" viewBox="0 0 486 174" fill="none" xmlns="http://www.w3.org/2000/svg">
<path d="M268.815 20.0413C268.815 8.97278 277.788 0 288.856 0H465.959C477.027 0 486 8.97277 486 20.0412V52.3163C486 63.3848 477.027 72.3576 465.959 72.3576H443.078C432.141 72.3576 423.224 81.1262 423.04 92.0617L422.003 153.653C421.819 164.588 412.902 173.357 401.965 173.357H20.0412C8.97276 173.357 0 164.384 0 153.315V115.513C0 104.445 8.97277 95.4718 20.0412 95.4718H248.774C259.842 95.4718 268.815 86.499 268.815 75.4306V20.0413Z" fill="#E4FFD4" style="fill:#E4FFD4;fill:color(display-p3 0.8941 1.0000 0.8314);fill-opacity:1;"/>
</svg>
