<svg width="25" height="25" viewBox="0 0 25 25" fill="none" xmlns="http://www.w3.org/2000/svg">
<g clip-path="url(#clip0_1_397)">
<path d="M3.125 5.20845C3.125 4.65591 3.3445 4.12601 3.7352 3.73531C4.1259 3.34461 4.6558 3.12511 5.20834 3.12511H19.7917C20.3442 3.12511 20.8741 3.34461 21.2648 3.73531C21.6555 4.12601 21.875 4.65591 21.875 5.20845V19.7918C21.875 20.3443 21.6555 20.8742 21.2648 21.2649C20.8741 21.6556 20.3442 21.8751 19.7917 21.8751H5.20834C4.6558 21.8751 4.1259 21.6556 3.7352 21.2649C3.3445 20.8742 3.125 20.3443 3.125 19.7918V5.20845Z" stroke="#52D600" style="stroke:#52D600;stroke:color(display-p3 0.3211 0.8375 0.0000);stroke-opacity:1;" stroke-width="2.01637" stroke-linecap="round" stroke-linejoin="round"/>
<path d="M9.375 12.5L11.4583 14.5833L15.625 10.4166" stroke="#52D600" style="stroke:#52D600;stroke:color(display-p3 0.3211 0.8375 0.0000);stroke-opacity:1;" stroke-width="2.01637" stroke-linecap="round" stroke-linejoin="round"/>
</g>
<defs>
<clipPath id="clip0_1_397">
<rect width="24.1964" height="24.1964" fill="white" style="fill:white;fill-opacity:1;" transform="scale(1.03321)"/>
</clipPath>
</defs>
</svg>
