<svg width="32" height="32" viewBox="0 0 32 32" fill="none" xmlns="http://www.w3.org/2000/svg">
<g clip-path="url(#clip0_1_279)">
<path d="M6.66666 22.6666C6.66666 23.3738 6.94761 24.0521 7.44771 24.5522C7.9478 25.0523 8.62608 25.3333 9.33332 25.3333C10.0406 25.3333 10.7188 25.0523 11.2189 24.5522C11.719 24.0521 12 23.3738 12 22.6666C12 21.9594 11.719 21.2811 11.2189 20.781C10.7188 20.2809 10.0406 19.9999 9.33332 19.9999C8.62608 19.9999 7.9478 20.2809 7.44771 20.781C6.94761 21.2811 6.66666 21.9594 6.66666 22.6666Z" stroke="#5C9B35" style="stroke:#5C9B35;stroke:color(display-p3 0.3608 0.6078 0.2078);stroke-opacity:1;" stroke-width="2.07549" stroke-linecap="round" stroke-linejoin="round"/>
<path d="M20 22.6666C20 23.3738 20.2809 24.0521 20.781 24.5522C21.2811 25.0523 21.9594 25.3333 22.6666 25.3333C23.3739 25.3333 24.0522 25.0523 24.5523 24.5522C25.0524 24.0521 25.3333 23.3738 25.3333 22.6666C25.3333 21.9594 25.0524 21.2811 24.5523 20.781C24.0522 20.2809 23.3739 19.9999 22.6666 19.9999C21.9594 19.9999 21.2811 20.2809 20.781 20.781C20.2809 21.2811 20 21.9594 20 22.6666Z" stroke="#5C9B35" style="stroke:#5C9B35;stroke:color(display-p3 0.3608 0.6078 0.2078);stroke-opacity:1;" stroke-width="2.07549" stroke-linecap="round" stroke-linejoin="round"/>
<path d="M6.66666 22.6666H4V17.3333M2.66667 6.6666H17.3333V22.6666M12 22.6666H20M25.3333 22.6666H28V14.6666M28 14.6666H17.3333M28 14.6666L24 7.99994H17.3333" stroke="#5C9B35" style="stroke:#5C9B35;stroke:color(display-p3 0.3608 0.6078 0.2078);stroke-opacity:1;" stroke-width="2.07549" stroke-linecap="round" stroke-linejoin="round"/>
<path d="M4 11.9999H9.33333" stroke="#5C9B35" style="stroke:#5C9B35;stroke:color(display-p3 0.3608 0.6078 0.2078);stroke-opacity:1;" stroke-width="2.07549" stroke-linecap="round" stroke-linejoin="round"/>
</g>
<defs>
<clipPath id="clip0_1_279">
<rect width="31.1323" height="31.1323" fill="white" style="fill:white;fill-opacity:1;" transform="scale(1.02787)"/>
</clipPath>
</defs>
</svg>
