<svg width="706" height="398" viewBox="0 0 706 398" fill="none" xmlns="http://www.w3.org/2000/svg">
<path d="M0 70.7527V22.536C0 10.0897 10.0897 0 22.536 0H253.573C273.111 0 288.95 15.8385 288.95 35.3763C288.95 54.9141 304.788 70.7527 324.326 70.7527H374.671H667.473C688.751 70.7527 706 88.0016 706 109.279V333.58C706 354.858 688.751 372.107 667.473 372.107H387.511C380.42 372.107 374.671 377.855 374.671 384.947C374.671 392.038 368.922 397.787 361.831 397.787H38.5266C17.2489 397.787 0 380.538 0 359.261V70.7527Z" fill="#9CEE69" style="fill:#9CEE69;fill:color(display-p3 0.6118 0.9333 0.4118);fill-opacity:1;"/>
</svg>
