<svg width="28" height="28" viewBox="0 0 28 28" fill="none" xmlns="http://www.w3.org/2000/svg">
<g clip-path="url(#clip0_1_324)">
<path d="M3.49997 11.6667C3.49997 12.7392 3.71121 13.8011 4.12162 14.7919C4.53203 15.7828 5.13358 16.6831 5.89193 17.4414C6.65027 18.1997 7.55056 18.8013 8.54139 19.2117C9.53221 19.6221 10.5942 19.8334 11.6666 19.8334C12.7391 19.8334 13.8011 19.6221 14.7919 19.2117C15.7827 18.8013 16.683 18.1997 17.4413 17.4414C18.1997 16.6831 18.8012 15.7828 19.2116 14.7919C19.6221 13.8011 19.8333 12.7392 19.8333 11.6667C19.8333 10.5942 19.6221 9.53227 19.2116 8.54145C18.8012 7.55062 18.1997 6.65034 17.4413 5.89199C16.683 5.13365 15.7827 4.53209 14.7919 4.12168C13.8011 3.71127 12.7391 3.50003 11.6666 3.50003C10.5942 3.50003 9.53221 3.71127 8.54139 4.12168C7.55056 4.53209 6.65027 5.13365 5.89193 5.89199C5.13358 6.65034 4.53203 7.55062 4.12162 8.54145C3.71121 9.53227 3.49997 10.5942 3.49997 11.6667Z" stroke="#231E30" style="stroke:#231E30;stroke:color(display-p3 0.1373 0.1176 0.1882);stroke-opacity:1;" stroke-width="1.85376" stroke-linecap="round" stroke-linejoin="round"/>
<path d="M24.5 24.4999L17.5 17.4999" stroke="#231E30" style="stroke:#231E30;stroke:color(display-p3 0.1373 0.1176 0.1882);stroke-opacity:1;" stroke-width="1.85376" stroke-linecap="round" stroke-linejoin="round"/>
<path d="M14 8.16657H11.0833C10.6192 8.16657 10.1741 8.35095 9.8459 8.67914C9.51771 9.00733 9.33333 9.45245 9.33333 9.91657C9.33333 10.3807 9.51771 10.8258 9.8459 11.154C10.1741 11.4822 10.6192 11.6666 11.0833 11.6666H12.25C12.7141 11.6666 13.1592 11.8509 13.4874 12.1791C13.8156 12.5073 14 12.9524 14 13.4166C14 13.8807 13.8156 14.3258 13.4874 14.654C13.1592 14.9822 12.7141 15.1666 12.25 15.1666H9.33333" stroke="#231E30" style="stroke:#231E30;stroke:color(display-p3 0.1373 0.1176 0.1882);stroke-opacity:1;" stroke-width="1.85376" stroke-linecap="round" stroke-linejoin="round"/>
<path d="M11.6667 15.1667V16.3334M11.6667 7.00006V8.16673" stroke="#231E30" style="stroke:#231E30;stroke:color(display-p3 0.1373 0.1176 0.1882);stroke-opacity:1;" stroke-width="1.85376" stroke-linecap="round" stroke-linejoin="round"/>
</g>
<defs>
<clipPath id="clip0_1_324">
<rect width="27.8064" height="27.8064" fill="white" style="fill:white;fill-opacity:1;" transform="scale(1.00696)"/>
</clipPath>
</defs>
</svg>
