<svg width="40" height="40" viewBox="0 0 40 40" fill="none" xmlns="http://www.w3.org/2000/svg">
<path d="M35.2409 9.4794L21.4606 1.47784C20.5915 0.982838 19.46 0.982838 18.584 1.47784L4.65653 9.4794C3.75966 9.99534 3.12497 10.965 3.12497 12.0022V27.9841C3.12497 29.0213 3.77622 29.9913 4.6731 30.51L8.35278 32.6C10.1115 33.4663 10.7331 33.4663 11.5334 33.4663C14.1375 33.4663 15.625 31.8916 15.625 29.145V13.3669C15.625 13.1441 15.509 12.8125 15.2903 12.8125H13.5331C13.3106 12.8125 12.8125 13.1441 12.8125 13.3666V29.1447C12.8125 30.3622 11.7112 31.5738 9.65309 30.5447L5.85091 28.3531C5.71841 28.2813 5.62497 28.1366 5.62497 27.9841V12.0022C5.62497 11.8516 5.79841 11.7003 5.93185 11.6231L19.8143 3.63534C19.944 3.5619 20.1347 3.5619 20.264 3.63534L33.9771 11.6213C34.1084 11.7003 34.0622 11.8469 34.0622 12.0022V27.9841C34.0622 28.1366 34.1193 28.285 33.9896 28.3585L20.2128 36.351C20.0947 36.4219 19.9481 36.4219 19.8187 36.351L16.2853 34.2419C16.1787 34.18 16.0522 34.1578 15.95 34.215C14.9668 34.7722 14.7856 34.8463 13.8634 35.166C13.6365 35.245 13.3018 35.3822 13.9915 35.7688L18.6159 38.5044C19.0574 38.7594 19.5582 38.8937 20.0681 38.8938C20.5812 38.8938 21.0837 38.7606 21.5265 38.5044L35.2406 30.51C36.1375 29.9875 36.5625 29.0213 36.5625 27.9841V12.0022C36.5625 10.965 36.1375 9.99784 35.2409 9.4794ZM24.3468 25.4516C20.6825 25.4516 19.8753 24.4406 19.6062 22.6185C19.575 22.4222 19.4084 22.1875 19.2087 22.1875H17.4178C17.1962 22.1875 17.0181 22.4563 17.0181 22.6769C17.0181 25.01 18.2865 27.8369 24.3472 27.8369C28.7343 27.8369 31.2497 26.1322 31.2497 23.1153C31.2497 20.1241 29.2287 19.3391 24.974 18.776C20.6734 18.2075 20.2365 17.9203 20.2365 16.9128C20.2365 16.0822 20.6065 14.9744 23.7909 14.9744C26.6362 14.9744 27.685 15.585 28.1165 17.5028C28.1534 17.6831 28.3181 17.8125 28.504 17.8125H30.3022C30.4128 17.8125 30.5184 17.7678 30.5959 17.6888C30.6709 17.6038 30.7106 17.4972 30.7006 17.3828C30.4221 14.0803 28.2281 12.5413 23.7906 12.5413C19.8434 12.5413 17.4887 14.2081 17.4887 17.0022C17.4887 20.0328 19.8315 20.8703 23.6206 21.245C28.1534 21.6894 28.5059 22.3519 28.5059 23.2435C28.5059 24.7919 27.2628 25.4516 24.3468 25.4516Z" fill="#83CD29" style="fill:#83CD29;fill:color(display-p3 0.5137 0.8039 0.1608);fill-opacity:1;"/>
</svg>
