<svg width="28" height="28" viewBox="0 0 28 28" fill="none" xmlns="http://www.w3.org/2000/svg">
<g clip-path="url(#clip0_5_343)">
<path d="M4.66667 5.83333C4.66667 5.52391 4.78958 5.22717 5.00838 5.00838C5.22717 4.78958 5.52391 4.66667 5.83333 4.66667H22.1667C22.4761 4.66667 22.7728 4.78958 22.9916 5.00838C23.2104 5.22717 23.3333 5.52391 23.3333 5.83333V22.1667C23.3333 22.4761 23.2104 22.7728 22.9916 22.9916C22.7728 23.2104 22.4761 23.3333 22.1667 23.3333H5.83333C5.52391 23.3333 5.22717 23.2104 5.00838 22.9916C4.78958 22.7728 4.66667 22.4761 4.66667 22.1667V5.83333Z" stroke="black" style="stroke:black;stroke-opacity:1;" stroke-width="1.85376" stroke-linecap="round" stroke-linejoin="round"/>
<path d="M14 8.1667V14L17.5 17.5" stroke="black" style="stroke:black;stroke-opacity:1;" stroke-width="1.85376" stroke-linecap="round" stroke-linejoin="round"/>
<path d="M4.66667 14H5.83333" stroke="black" style="stroke:black;stroke-opacity:1;" stroke-width="1.85376" stroke-linecap="round" stroke-linejoin="round"/>
<path d="M22.1667 14H23.3334" stroke="black" style="stroke:black;stroke-opacity:1;" stroke-width="1.85376" stroke-linecap="round" stroke-linejoin="round"/>
<path d="M14 22.1667V23.3334" stroke="black" style="stroke:black;stroke-opacity:1;" stroke-width="1.85376" stroke-linecap="round" stroke-linejoin="round"/>
</g>
<defs>
<clipPath id="clip0_5_343">
<rect width="27.8064" height="27.8064" fill="white" style="fill:white;fill-opacity:1;" transform="scale(1.00696)"/>
</clipPath>
</defs>
</svg>
