<svg width="28" height="28" viewBox="0 0 28 28" fill="none" xmlns="http://www.w3.org/2000/svg">
<g clip-path="url(#clip0_1_436)">
<path d="M8.16668 14.0001L14 19.8335L12.25 21.5835C11.8693 21.9767 11.4141 22.2903 10.911 22.506C10.4078 22.7216 9.86684 22.8349 9.31948 22.8393C8.77211 22.8438 8.22933 22.7393 7.72277 22.5318C7.21621 22.3244 6.75599 22.0183 6.36893 21.6312C5.98188 21.2441 5.67572 20.7839 5.4683 20.2774C5.26088 19.7708 5.15634 19.228 5.16079 18.6807C5.16523 18.1333 5.27856 17.5923 5.49418 17.0892C5.7098 16.586 6.02339 16.1308 6.41668 15.7501L8.16668 14.0001Z" stroke="#231E30" style="stroke:#231E30;stroke:color(display-p3 0.1373 0.1176 0.1882);stroke-opacity:1;" stroke-width="1.85376" stroke-linecap="round" stroke-linejoin="round"/>
<path d="M19.8333 14L14 8.16671L15.75 6.41671C16.1307 6.02342 16.5859 5.70983 17.089 5.49421C17.5922 5.2786 18.1332 5.16526 18.6805 5.16082C19.2279 5.15638 19.7707 5.26091 20.2772 5.46833C20.7838 5.67575 21.244 5.98191 21.6311 6.36897C22.0181 6.75602 22.3243 7.21624 22.5317 7.7228C22.7391 8.22937 22.8437 8.77214 22.8392 9.31951C22.8348 9.86687 22.7214 10.4079 22.5058 10.911C22.2902 11.4141 21.9766 11.8693 21.5833 12.25L19.8333 14Z" stroke="#231E30" style="stroke:#231E30;stroke:color(display-p3 0.1373 0.1176 0.1882);stroke-opacity:1;" stroke-width="1.85376" stroke-linecap="round" stroke-linejoin="round"/>
<path d="M3.5 24.5L6.41667 21.5833" stroke="#231E30" style="stroke:#231E30;stroke:color(display-p3 0.1373 0.1176 0.1882);stroke-opacity:1;" stroke-width="1.85376" stroke-linecap="round" stroke-linejoin="round"/>
<path d="M21.5833 6.41645L24.5 3.49978" stroke="#231E30" style="stroke:#231E30;stroke:color(display-p3 0.1373 0.1176 0.1882);stroke-opacity:1;" stroke-width="1.85376" stroke-linecap="round" stroke-linejoin="round"/>
<path d="M11.6667 12.8334L9.33333 15.1667" stroke="#231E30" style="stroke:#231E30;stroke:color(display-p3 0.1373 0.1176 0.1882);stroke-opacity:1;" stroke-width="1.85376" stroke-linecap="round" stroke-linejoin="round"/>
<path d="M15.1667 16.3331L12.8333 18.6665" stroke="#231E30" style="stroke:#231E30;stroke:color(display-p3 0.1373 0.1176 0.1882);stroke-opacity:1;" stroke-width="1.85376" stroke-linecap="round" stroke-linejoin="round"/>
</g>
<defs>
<clipPath id="clip0_1_436">
<rect width="27.8064" height="27.8064" fill="white" style="fill:white;fill-opacity:1;" transform="scale(1.00696)"/>
</clipPath>
</defs>
</svg>
