<svg width="28" height="28" viewBox="0 0 28 28" fill="none" xmlns="http://www.w3.org/2000/svg">
<g clip-path="url(#clip0_5_313)">
<path d="M18.6667 21C19.2855 21 19.879 21.2458 20.3166 21.6834C20.7542 22.121 21 22.7145 21 23.3333C21 22.7145 21.2459 22.121 21.6834 21.6834C22.121 21.2458 22.7145 21 23.3334 21C22.7145 21 22.121 20.7542 21.6834 20.3166C21.2459 19.879 21 19.2855 21 18.6667C21 19.2855 20.7542 19.879 20.3166 20.3166C19.879 20.7542 19.2855 21 18.6667 21ZM18.6667 7C19.2855 7 19.879 7.24583 20.3166 7.68342C20.7542 8.121 21 8.71449 21 9.33333C21 8.71449 21.2459 8.121 21.6834 7.68342C22.121 7.24583 22.7145 7 23.3334 7C22.7145 7 22.121 6.75417 21.6834 6.31658C21.2459 5.879 21 5.2855 21 4.66667C21 5.2855 20.7542 5.879 20.3166 6.31658C19.879 6.75417 19.2855 7 18.6667 7ZM10.5 21C10.5 19.1435 11.2375 17.363 12.5503 16.0502C13.863 14.7375 15.6435 14 17.5 14C15.6435 14 13.863 13.2625 12.5503 11.9497C11.2375 10.637 10.5 8.85651 10.5 7C10.5 8.85651 9.76253 10.637 8.44978 11.9497C7.13702 13.2625 5.35655 14 3.50003 14C5.35655 14 7.13702 14.7375 8.44978 16.0502C9.76253 17.363 10.5 19.1435 10.5 21Z" stroke="black" style="stroke:black;stroke-opacity:1;" stroke-width="1.85376" stroke-linecap="round" stroke-linejoin="round"/>
</g>
<defs>
<clipPath id="clip0_5_313">
<rect width="27.8064" height="27.8064" fill="white" style="fill:white;fill-opacity:1;" transform="scale(1.00696)"/>
</clipPath>
</defs>
</svg>
