<svg width="680" height="383" viewBox="0 0 680 383" fill="none" xmlns="http://www.w3.org/2000/svg">
<path d="M0 68.1225V21.6983C0 9.71465 9.71464 0 21.6983 0H244.147C262.958 0 278.208 15.2497 278.208 34.0612C278.208 52.8727 293.458 68.1225 312.269 68.1225H360.743H642.66C663.147 68.1225 679.755 84.7302 679.755 105.217V321.179C679.755 341.666 663.147 358.274 642.66 358.274H373.106C366.278 358.274 360.743 363.809 360.743 370.637C360.743 377.465 355.208 383 348.38 383H37.0943C16.6077 383 0 366.392 0 345.905V68.1225Z" fill="#9CEE69" style="fill:#9CEE69;fill:color(display-p3 0.6118 0.9333 0.4118);fill-opacity:1;"/>
</svg>
