<svg width="28" height="28" viewBox="0 0 28 28" fill="none" xmlns="http://www.w3.org/2000/svg">
<g clip-path="url(#clip0_1_358)">
<path d="M8.16667 23.3332H19.8333" stroke="#231E30" style="stroke:#231E30;stroke:color(display-p3 0.1373 0.1176 0.1882);stroke-opacity:1;" stroke-width="1.85376" stroke-linecap="round" stroke-linejoin="round"/>
<path d="M7 6.99997L14 5.8333L21 6.99997" stroke="#231E30" style="stroke:#231E30;stroke:color(display-p3 0.1373 0.1176 0.1882);stroke-opacity:1;" stroke-width="1.85376" stroke-linecap="round" stroke-linejoin="round"/>
<path d="M14 3.49978V23.3331" stroke="#231E30" style="stroke:#231E30;stroke:color(display-p3 0.1373 0.1176 0.1882);stroke-opacity:1;" stroke-width="1.85376" stroke-linecap="round" stroke-linejoin="round"/>
<path d="M10.5 14.0001L7 7.00006L3.5 14.0001C3.5 14.9283 3.86875 15.8186 4.52513 16.4749C5.1815 17.1313 6.07174 17.5001 7 17.5001C7.92826 17.5001 8.8185 17.1313 9.47487 16.4749C10.1312 15.8186 10.5 14.9283 10.5 14.0001Z" stroke="#231E30" style="stroke:#231E30;stroke:color(display-p3 0.1373 0.1176 0.1882);stroke-opacity:1;" stroke-width="1.85376" stroke-linecap="round" stroke-linejoin="round"/>
<path d="M24.5 14.0001L21 7.00006L17.5 14.0001C17.5 14.9283 17.8687 15.8186 18.5251 16.4749C19.1815 17.1313 20.0717 17.5001 21 17.5001C21.9283 17.5001 22.8185 17.1313 23.4749 16.4749C24.1312 15.8186 24.5 14.9283 24.5 14.0001Z" stroke="#231E30" style="stroke:#231E30;stroke:color(display-p3 0.1373 0.1176 0.1882);stroke-opacity:1;" stroke-width="1.85376" stroke-linecap="round" stroke-linejoin="round"/>
</g>
<defs>
<clipPath id="clip0_1_358">
<rect width="27.8064" height="27.8064" fill="white" style="fill:white;fill-opacity:1;" transform="scale(1.00696)"/>
</clipPath>
</defs>
</svg>
