<svg width="28" height="28" viewBox="0 0 28 28" fill="none" xmlns="http://www.w3.org/2000/svg">
<g clip-path="url(#clip0_5_325)">
<path d="M14 8.1667V14L16.3333 16.3334" stroke="black" style="stroke:black;stroke-opacity:1;" stroke-width="1.85376" stroke-linecap="round" stroke-linejoin="round"/>
<path d="M19.8333 25.6667L25.6666 22.1667L19.8333 18.6667V25.6667Z" stroke="#231E30" style="stroke:#231E30;stroke:color(display-p3 0.1373 0.1176 0.1882);stroke-opacity:1;" stroke-width="1.85376" stroke-linecap="round" stroke-linejoin="round"/>
<path d="M15.1865 24.4335C12.9907 24.6831 10.7721 24.2334 8.84675 23.1487C6.92135 22.0639 5.38731 20.3993 4.46309 18.3918C3.53887 16.3844 3.27159 14.1366 3.69932 11.9684C4.12705 9.80025 5.22798 7.82231 6.84532 6.31629C8.46266 4.81027 10.514 3.85295 12.7071 3.58066C14.9002 3.30837 17.1233 3.735 19.0598 4.79979C20.9963 5.86458 22.5475 7.51323 23.4925 9.51097C24.4374 11.5087 24.728 13.7537 24.3227 15.9262" stroke="#231E30" style="stroke:#231E30;stroke:color(display-p3 0.1373 0.1176 0.1882);stroke-opacity:1;" stroke-width="1.85376" stroke-linecap="round" stroke-linejoin="round"/>
</g>
<defs>
<clipPath id="clip0_5_325">
<rect width="27.8064" height="27.8064" fill="white" style="fill:white;fill-opacity:1;" transform="scale(1.00696)"/>
</clipPath>
</defs>
</svg>
