<svg width="28" height="28" viewBox="0 0 28 28" fill="none" xmlns="http://www.w3.org/2000/svg">
<g clip-path="url(#clip0_1_288)">
<path d="M14 1.16668C14.1902 1.1674 14.3772 1.21493 14.5447 1.30506C14.7121 1.3952 14.8548 1.52517 14.9601 1.68351L15.0383 1.81884L18.3656 8.56334L25.809 9.64251C26.6735 9.76851 27.069 10.7392 26.6291 11.4228L26.5475 11.5337L26.4565 11.634L21.0618 16.8828L22.3335 24.297C22.3666 24.4904 22.3505 24.689 22.2866 24.8745C22.2226 25.0601 22.113 25.2265 21.9678 25.3584C21.8226 25.4904 21.6465 25.5836 21.4557 25.6296C21.2649 25.6755 21.0657 25.6726 20.8763 25.6212L20.7585 25.5803L20.6406 25.5267L13.9988 22.0267L7.34182 25.5267C7.21932 25.5908 7.09448 25.6317 6.96848 25.6503L6.84482 25.662C6.68199 25.668 6.51971 25.6398 6.36838 25.5795C6.21704 25.5191 6.07999 25.4277 5.96599 25.3113C5.85199 25.1949 5.76355 25.056 5.70636 24.9034C5.64916 24.7508 5.62445 24.588 5.63382 24.4253L5.64899 24.297L6.92065 16.8828L1.52715 11.6328C1.38768 11.497 1.28439 11.3284 1.22667 11.1425C1.16895 10.9565 1.15863 10.7591 1.19666 10.5682C1.23468 10.3772 1.31985 10.1988 1.4444 10.0492C1.56895 9.89952 1.72894 9.78339 1.90982 9.71134L2.04165 9.66934L2.17465 9.64251L9.61682 8.56334L12.9453 1.82001C13.0382 1.62005 13.1875 1.45164 13.3749 1.33555C13.5623 1.21945 13.7796 1.16075 14 1.16668ZM14 4.98634V19.5417C14.094 19.5417 14.1876 19.553 14.2788 19.5755L14.413 19.6175L14.5436 19.6758L19.6338 22.358L18.6585 16.6728C18.6104 16.3919 18.6668 16.103 18.8171 15.8608L18.8988 15.7453L18.9945 15.6403L23.1315 11.6118L17.4253 10.7858C17.1433 10.7449 16.886 10.6021 16.702 10.3845L16.6168 10.2713L16.5468 10.1477L14 4.98634Z" fill="#231E30" style="fill:#231E30;fill:color(display-p3 0.1373 0.1176 0.1882);fill-opacity:1;"/>
</g>
<defs>
<clipPath id="clip0_1_288">
<rect width="27.8064" height="27.8064" fill="white" style="fill:white;fill-opacity:1;" transform="scale(1.00696)"/>
</clipPath>
</defs>
</svg>
